<svg class="icon" viewBox="0 0 1024 1024" version="1.1" xmlns="http://www.w3.org/2000/svg"><path d="M554.666667 426.666667a42.666667 42.666667 0 0 0-42.666667-42.666667H170.666667a42.666667 42.666667 0 0 0-42.666667 42.666667v341.333333a128 128 0 0 0 128 128h256a42.666667 42.666667 0 0 0 42.666667-42.666667V426.666667zM682.666667 896a42.666667 42.666667 0 0 1-42.666667-42.666667V426.666667a42.666667 42.666667 0 0 1 42.666667-42.666667h170.666666a42.666667 42.666667 0 0 1 42.666667 42.666667v341.333333a128 128 0 0 1-128 128h-85.333333z" fill="#000000" p-id="1455"></path><path d="M128 256a128 128 0 0 1 128-128h512a128 128 0 0 1 128 128 42.666667 42.666667 0 0 1-42.666667 42.666667H170.666667a42.666667 42.666667 0 0 1-42.666667-42.666667z"></path></svg>
