<svg xmlns="http://www.w3.org/2000/svg" xmlns:xlink="http://www.w3.org/1999/xlink" fill="none" version="1.1" width="1429.74560546875" height="1521.5181884765625" viewBox="0 0 1429.74560546875 1521.5181884765625"><defs><clipPath id="master_svg0_7_00879"><rect x="1921.7556762695312" y="467.24822998046875" width="642.999755859375" height="642.999755859375" rx="0"/></clipPath></defs><g style="mix-blend-mode:passthrough" transform="matrix(-5.594527863195253e-8,1.0000003576278687,-1.0000003576278687,-5.594527863195253e-8,1429.745695710381,-1361.7666105408773)"><g style="mix-blend-mode:passthrough"><g style="mix-blend-mode:passthrough" transform="matrix(-5.594526086838414e-8,-1,1,-5.594526086838414e-8,254.5157550795575,3032.003533809362)"><ellipse cx="2242.7558975219727" cy="1988.240234375" rx="599.496337890625" ry="599.496337890625" fill="#00B4D8" fill-opacity="1"/></g><g transform="matrix(5.5945239552102066e-8,0.9999996423721313,0.9999996423721313,-5.5945239552102066e-8,1454.5075058769694,-1454.5067328753619)" clip-path="url(#master_svg0_7_00879)"><g><path d="M2524.1405248413084,776.5723754882813C2524.1405248413084,800.6223754882812,2497.7665248413086,888.7853754882813,2402.0055248413087,877.7963754882812C2293.6855248413085,865.3633754882812,2257.7045248413087,711.0779754882813,2043.0740848413086,828.3773754882812C2039.8715848413085,826.0543754882813,2038.3645248413086,813.4953754882813,2038.3645248413086,810.4183754882813C2113.3408248413084,751.5802754882812,2229.1965248413085,675.2853254882813,2308.191524841309,674.1550284882812C2431.0165248413086,672.3967954882812,2524.1405248413084,742.0983754882812,2524.1405248413084,776.5723754882813Z" fill="#03045E" fill-opacity="1"/></g><g><path d="M2379.390223535156,825.1042891210938C2386.548723535156,860.7085491210937,2377.5691235351565,882.6865491210938,2344.4766235351562,894.4290491210937C2409.2174235351563,900.8968491210937,2420.771523535156,846.0775491210937,2416.250423535156,837.5375491210938Q2421.776223535156,814.8688391210937,2379.390223535156,825.1042891210938Z" fill="#03045E" fill-opacity="1"/></g><g><path d="M1995.852860180664,822.4059009765625Q1970.484010180664,809.2819009765625,1962.383560180664,774.6823409765625Q1995.350460180664,761.4327709765626,2020.656560180664,774.5567509765625Q2045.962660180664,787.6807009765625,2054.125860180664,822.2803009765626Q2021.158860180664,835.5299009765625,1995.852860180664,822.4059009765625Z" fill="#CAF0F8" fill-opacity="1"/></g><g><path d="M2056.2607911865234,863.849895703125Q2046.5904911865234,890.725795703125,2013.4351911865235,903.347095703125Q1995.9156111865234,872.452695703125,2005.5859111865234,845.576795703125Q2015.2561911865234,818.700895703125,2048.4114911865236,806.079195703125Q2065.9310911865236,837.036795703125,2056.2607911865234,863.849895703125ZM2295.3185911865235,824.352395703125C2406.7775911865233,871.447995703125,2445.9615911865235,765.514195703125,2518.3005911865234,804.886145703125C2474.4075911865234,914.776095703125,2379.2115911865235,890.851395703125,2295.3185911865235,824.352395703125Z" fill="#CAF0F8" fill-opacity="1"/></g><g><path d="M2297.0073716796874,799.4858274023437C2304.1658716796874,835.0900874023438,2288.9068716796874,847.5233874023437,2254.5584716796875,866.2360874023437C2333.6163716796873,886.2673874023437,2330.8533716796874,817.8844874023438,2326.3321716796877,809.3444874023437Q2331.8580716796873,786.7386074023437,2297.0073716796874,799.4858274023437Z" fill="#03045E" fill-opacity="1"/></g><g><path d="M2358.300335205078,984.2862012695313C2358.300335205078,1003.0617012695312,2300.593335205078,986.6724012695313,2273.842335205078,995.3380012695312C2261.0953352050783,999.4196012695312,2227.312335205078,1004.1292012695312,2211.676335205078,1004.1292012695312C2186.119335205078,1004.1292012695312,2151.8963352050782,1000.6127012695313,2135.8210352050783,990.6912012695312C2121.3156352050783,981.7116012695312,2051.237335205078,988.6190012695313,2051.237335205078,975.4322012695312C2051.237335205078,958.7918012695312,2164.141335205078,973.2972012695312,2185.993335205078,964.1921012695312C2200.562335205078,958.1010012695313,2213.3093352050782,941.0838012695312,2232.712335205078,941.0838012695312C2250.5463352050783,941.0838012695312,2260.1533352050783,955.9032012695312,2273.968335205078,961.1151012695312C2297.8923352050783,970.0319012695312,2358.300335205078,966.7038012695313,2358.300335205078,984.2862012695313ZM2463.418335205078,967.9597012695313C2463.418335205078,974.4903012695313,2443.449335205078,968.7760012695312,2434.219335205078,971.7902012695313C2429.8233352050784,973.2344012695312,2413.811335205078,977.5044012695313,2408.3473352050783,977.5044012695313C2399.493335205078,977.5044012695313,2385.993335205078,972.9205012695312,2380.404335205078,969.4668012695313C2375.380335205078,966.3899012695313,2351.770335205078,965.8247012695313,2351.770335205078,961.2407012695312C2351.770335205078,955.4637012695313,2379.085335205078,956.7196012695313,2387.311335205078,956.2800012695312C2396.8563352050783,955.7776012695313,2400.812335205078,950.1261612695313,2414.627335205078,949.3726312695312C2420.781335205078,949.0586612695313,2463.418335205078,961.9315012695313,2463.418335205078,967.9597012695313Z" fill="#023E8A" fill-opacity="1"/></g></g></g><g transform="matrix(-5.5945239552102066e-8,-0.9999996423721313,0.9999996423721313,-5.5945239552102066e-8,-3.488465694546676,2795.0005251647926)"><g><path d="M2570.745950927734,1944.2594670410156Q2585.615950927734,1972.0204670410158,2597.6759509277344,2001.0834670410156Q2621.4759509277346,2058.500467041016,2633.7259509277346,2119.460467041016Q2646.285950927734,2181.9664670410157,2646.285950927734,2246.2604670410155Q2646.285950927734,2311.7234670410157,2633.2659509277346,2375.3134670410154Q2620.5859509277343,2437.3124670410157,2595.9359509277347,2495.5864670410156Q2571.7359509277344,2552.793467041016,2536.8759509277343,2604.3984670410155Q2502.3459509277345,2655.4974670410156,2458.6759509277344,2699.1674670410157Q2415.0059509277344,2742.8374670410158,2363.906950927734,2777.3674670410155Q2312.3019509277347,2812.2274670410156,2255.0949509277343,2836.427467041016Q2196.8209509277344,2861.0774670410156,2134.821950927734,2873.757467041016Q2071.2319509277345,2886.7774670410154,2005.7689509277343,2886.7774670410154Q1940.3059509277343,2886.7774670410154,1876.7159509277344,2873.757467041016Q1814.7169509277344,2861.0774670410156,1756.4429509277343,2836.427467041016Q1699.2359509277344,2812.2274670410156,1647.6309509277344,2777.3674670410155Q1596.5269509277343,2742.8374670410158,1552.8579509277345,2699.1674670410157Q1509.1879509277344,2655.4974670410156,1474.6635509277344,2604.3984670410155Q1439.7994509277344,2552.793467041016,1415.6031509277343,2495.5864670410156Q1390.9549909277343,2437.3114670410155,1378.2683509277344,2375.3144670410156Q1365.2558509277344,2311.7234670410157,1365.2558509277344,2246.2604670410155Q1365.2559509277344,2180.797467041016,1378.2684509277344,2117.2074670410157Q1390.9550309277345,2055.2094670410156,1415.6031509277343,1996.9344670410155Q1439.7995509277343,1939.7274670410156,1474.6635509277344,1888.1224670410156Q1509.1879509277344,1837.0184670410156,1552.8579509277345,1793.3494670410157Q1596.5269509277343,1749.6794670410156,1647.6309509277344,1715.1550670410156Q1699.2359509277344,1680.2912670410155,1756.4429509277343,1656.0946670410156Q1814.7179509277344,1631.4465370410155,1876.7159509277344,1618.7599670410157Q1940.3059509277343,1605.7474670410156,2005.7689509277343,1605.7474670410156Q2006.5179509277343,1605.7474670410156,2007.2659509277344,1605.7841670410157Q2008.0129509277344,1605.8209670410156,2008.7589509277345,1605.8943670410156Q2009.5039509277344,1605.9677670410156,2010.2439509277344,1606.0775670410155Q2010.9849509277344,1606.1874670410157,2011.7189509277343,1606.3335670410156Q2012.4529509277345,1606.4795670410156,2013.1799509277344,1606.6615670410156Q2013.9059509277345,1606.8434670410156,2014.6229509277343,1607.0607670410157Q2015.3389509277345,1607.2781670410156,2016.0439509277344,1607.5303670410156Q2016.7489509277343,1607.7825670410157,2017.4409509277343,1608.0691670410156Q2018.1329509277343,1608.3556670410155,2018.8089509277343,1608.6757670410157Q2019.4859509277344,1608.9959670410155,2020.1469509277345,1609.3488670410156Q2020.8069509277343,1609.7018670410157,2021.4489509277344,1610.0867670410157Q2022.0909509277344,1610.4716670410157,2022.7139509277345,1610.8876670410157Q2023.3359509277343,1611.3036670410156,2023.9379509277344,1611.7496670410155Q2024.5389509277343,1612.1956670410157,2025.1179509277345,1612.6706670410156Q2025.6969509277344,1613.1456670410157,2026.2509509277343,1613.6484670410157Q2026.8059509277343,1614.1512670410157,2027.3359509277343,1614.6806670410156Q2027.8649509277343,1615.2101670410157,2028.3679509277345,1615.7649670410156Q2028.8709509277344,1616.3196670410157,2029.3459509277345,1616.8984670410157Q2029.8209509277344,1617.4772670410157,2030.2669509277343,1618.0786670410157Q2030.7129509277343,1618.6800670410157,2031.1289509277344,1619.3025670410157Q2031.5449509277344,1619.9251670410156,2031.9299509277344,1620.5673670410156Q2032.3149509277343,1621.2095670410156,2032.6679509277344,1621.8698670410156Q2033.0209509277342,1622.5301670410156,2033.3409509277344,1623.2070670410155Q2033.6609509277343,1623.8838670410157,2033.9469509277344,1624.5756670410155Q2034.2339509277344,1625.2673670410156,2034.4859509277344,1625.9723670410156Q2034.7379509277343,1626.6772870410157,2034.9559509277344,1627.3937870410157Q2035.1729509277343,1628.1102770410157,2035.3549509277345,1628.8365770410155Q2035.5369509277343,1629.5628670410156,2035.6829509277345,1630.2972170410155Q2035.8289509277342,1631.0315570410157,2035.9389509277344,1631.7721870410155Q2036.0489509277345,1632.5128170410155,2036.1219509277344,1633.2579470410155Q2036.1949509277342,1634.0030770410156,2036.2319509277345,1634.7509070410156Q2036.2689509277343,1635.4987340410157,2036.2689509277343,1636.2474670410156Q2036.2689509277343,1636.9962000410155,2036.2319509277345,1637.7440270410157Q2036.1949509277342,1638.4918570410157,2036.1219509277344,1639.2369870410157Q2036.0489509277345,1639.9821170410157,2035.9389509277344,1640.7227470410157Q2035.8289509277342,1641.4633770410155,2035.6829509277345,1642.1977170410157Q2035.5369509277343,1642.9320670410157,2035.3549509277345,1643.6583670410157Q2035.1729509277343,1644.3846570410155,2034.9559509277344,1645.1011470410156Q2034.7379509277343,1645.8176470410156,2034.4859509277344,1646.5225670410157Q2034.2339509277344,1647.2275670410156,2033.9469509277344,1647.9192670410157Q2033.6609509277343,1648.6110670410155,2033.3409509277344,1649.2878670410157Q2033.0209509277342,1649.9647670410156,2032.6679509277344,1650.6250670410157Q2032.3149509277343,1651.2853670410157,2031.9299509277344,1651.9275670410157Q2031.5449509277344,1652.5697670410157,2031.1289509277344,1653.1923670410156Q2030.7129509277343,1653.8148670410155,2030.2669509277343,1654.4162670410155Q2029.8209509277344,1655.0176670410156,2029.3459509277345,1655.5964670410156Q2028.8709509277344,1656.1752670410156,2028.3679509277345,1656.7299670410157Q2027.8649509277343,1657.2847670410156,2027.3359509277343,1657.8142670410157Q2026.8059509277343,1658.3436670410156,2026.2509509277343,1658.8464670410156Q2025.6969509277344,1659.3492670410155,2025.1179509277345,1659.8242670410157Q2024.5389509277343,1660.2992670410156,2023.9379509277344,1660.7452670410157Q2023.3359509277343,1661.1912670410156,2022.7139509277345,1661.6072670410156Q2022.0909509277344,1662.0232670410155,2021.4489509277344,1662.4081670410155Q2020.8069509277343,1662.7930670410155,2020.1469509277345,1663.1460670410156Q2019.4859509277344,1663.4989670410157,2018.8089509277343,1663.8191670410156Q2018.1329509277343,1664.1392670410157,2017.4409509277343,1664.4257670410157Q2016.7489509277343,1664.7123670410156,2016.0439509277344,1664.9645670410157Q2015.3389509277345,1665.2167670410156,2014.6229509277343,1665.4341670410156Q2013.9059509277345,1665.6514670410156,2013.1799509277344,1665.8334670410156Q2012.4529509277345,1666.0153670410157,2011.7189509277343,1666.1613670410156Q2010.9849509277344,1666.3074670410156,2010.2439509277344,1666.4173670410157Q2009.5039509277344,1666.5271670410157,2008.7589509277345,1666.6005670410157Q2008.0129509277344,1666.6739670410157,2007.2659509277344,1666.7107670410155Q2006.5179509277343,1666.7474670410156,2005.7689509277343,1666.7474670410156Q1946.4829509277342,1666.7474670410156,1888.9449509277345,1678.5215670410157Q1832.8919509277343,1689.9916670410157,1780.2059509277344,1712.2759670410155Q1728.4659509277344,1734.1601670410157,1681.7789509277345,1765.7014670410156Q1635.5239509277344,1796.9504670410156,1595.9909509277345,1836.4824670410158Q1556.4589509277343,1876.0154670410157,1525.2099509277343,1922.2704670410158Q1493.6684509277343,1968.9574670410157,1471.7844509277343,2020.6974670410157Q1449.5001509277345,2073.3834670410156,1438.0300509277345,2129.4364670410155Q1426.2559509277344,2186.9744670410155,1426.2558509277344,2246.2604670410155Q1426.2558509277344,2305.5464670410156,1438.0300509277345,2363.0854670410154Q1449.5001509277345,2419.1374670410155,1471.7843509277343,2471.8234670410156Q1493.6684509277343,2523.5634670410154,1525.2099509277343,2570.250467041016Q1556.4589509277343,2616.5054670410154,1595.9909509277345,2656.0374670410156Q1635.5229509277344,2695.5674670410153,1681.7789509277345,2726.8174670410153Q1728.4659509277344,2758.3574670410153,1780.2059509277344,2780.2474670410156Q1832.8909509277344,2802.5274670410154,1888.9449509277345,2813.9974670410156Q1946.4829509277342,2825.7774670410154,2005.7689509277343,2825.7774670410154Q2065.0549509277344,2825.7774670410154,2122.5929509277344,2813.9974670410156Q2178.6469509277345,2802.5274670410154,2231.3319509277344,2780.2474670410156Q2283.0729509277344,2758.3574670410153,2329.7589509277345,2726.8174670410153Q2376.013950927734,2695.5674670410153,2415.5459509277343,2656.0374670410156Q2455.075950927734,2616.5064670410156,2486.325950927734,2570.250467041016Q2517.865950927734,2523.5634670410154,2539.7559509277344,2471.8234670410156Q2562.035950927734,2419.1384670410157,2573.5059509277344,2363.0844670410156Q2585.285950927734,2305.5464670410156,2585.285950927734,2246.2604670410155Q2585.285950927734,2188.0324670410155,2573.9159509277342,2131.4744670410155Q2562.8459509277345,2076.3584670410155,2541.325950927734,2024.4474670410157Q2530.4259509277344,1998.1664670410155,2516.9759509277346,1973.0624670410157Q2516.6259509277343,1972.4024670410156,2516.3059509277346,1971.7254670410157Q2515.9859509277344,1971.0494670410158,2515.6959509277344,1970.3574670410158Q2515.4059509277345,1969.6664670410155,2515.1559509277345,1968.9614670410156Q2514.9059509277345,1968.2564670410156,2514.6859509277347,1967.5404670410157Q2514.4659509277344,1966.8244670410156,2514.285950927734,1966.0974670410155Q2514.1059509277343,1965.3714670410156,2513.955950927734,1964.6374670410155Q2513.8059509277346,1963.9034670410156,2513.6959509277344,1963.1624670410156Q2513.5859509277343,1962.4224670410156,2513.5159509277346,1961.6774670410157Q2513.4359509277347,1960.9324670410156,2513.4059509277345,1960.1844670410155Q2513.365950927734,1959.4364670410157,2513.365950927734,1958.6874670410157Q2513.365950927734,1957.9394670410156,2513.3959509277347,1957.1914670410156Q2513.4359509277347,1956.4434670410155,2513.5059509277344,1955.6984670410156Q2513.5859509277343,1954.9524670410156,2513.6859509277347,1954.2124670410155Q2513.7959509277343,1953.4714670410156,2513.9459509277344,1952.7374670410156Q2514.0859509277343,1952.0024670410157,2514.2759509277344,1951.2764670410156Q2514.455950927734,1950.5494670410158,2514.6659509277342,1949.8334670410156Q2514.8859509277345,1949.1164670410158,2515.1359509277345,1948.4114670410156Q2515.3859509277345,1947.7054670410157,2515.6759509277344,1947.0134670410157Q2515.9659509277344,1946.3214670410157,2516.285950927734,1945.6444670410156Q2516.5959509277345,1944.9674670410157,2516.955950927734,1944.3074670410156Q2517.3059509277346,1943.6464670410155,2517.6859509277347,1943.0034670410155Q2518.075950927734,1942.3614670410157,2518.4859509277344,1941.7384670410156Q2518.9059509277345,1941.1154670410156,2519.3459509277345,1940.5134670410157Q2519.7959509277343,1939.9114670410156,2520.2659509277346,1939.3324670410157Q2520.745950927734,1938.7534670410155,2521.245950927734,1938.1984670410156Q2521.745950927734,1937.6434670410156,2522.2759509277344,1937.1134670410156Q2522.8059509277346,1936.5834670410156,2523.365950927734,1936.0794670410155Q2523.9159509277342,1935.5764670410156,2524.495950927734,1935.1014670410157Q2525.075950927734,1934.6254670410156,2525.6759509277344,1934.1794670410156Q2526.2759509277344,1933.7324670410158,2526.8959509277347,1933.3164670410156Q2527.5159509277346,1932.8994670410157,2528.1659509277342,1932.5144670410157Q2528.8059509277346,1932.1284670410155,2529.4659509277344,1931.7754670410156Q2530.1259509277343,1931.4214670410156,2530.7959509277343,1931.1004670410157Q2531.4759509277346,1930.7804670410155,2532.1659509277342,1930.4924670410155Q2532.8559509277343,1930.2054670410157,2533.5659509277343,1929.9524670410156Q2534.2659509277346,1929.6994670410156,2534.9859509277344,1929.4824670410158Q2535.6959509277344,1929.2644670410157,2536.4259509277344,1929.0814670410157Q2537.1559509277345,1928.8984670410157,2537.8859509277345,1928.7524670410157Q2538.6259509277343,1928.6054670410156,2539.365950927734,1928.4944670410157Q2540.1059509277343,1928.3844670410156,2540.8459509277345,1928.3104670410157Q2541.5959509277345,1928.2364670410157,2542.3359509277343,1928.1984670410156Q2543.0859509277343,1928.1614670410156,2543.8359509277343,1928.1604670410156Q2544.5859509277343,1928.1604670410156,2545.3359509277343,1928.1964670410157Q2546.0859509277343,1928.2324670410158,2546.825950927734,1928.3054670410156Q2547.575950927734,1928.3774670410157,2548.3159509277343,1928.4874670410156Q2549.0559509277346,1928.5964670410156,2549.785950927734,1928.7414670410158Q2550.5259509277344,1928.8874670410155,2551.245950927734,1929.0684670410155Q2551.9759509277346,1929.2494670410156,2552.6959509277344,1929.4664670410157Q2553.4059509277345,1929.6834670410155,2554.115950927734,1929.9344670410155Q2554.8159509277343,1930.1864670410157,2555.5159509277346,1930.4724670410155Q2556.205950927734,1930.7584670410156,2556.8759509277343,1931.0774670410156Q2557.5559509277346,1931.3974670410157,2558.2159509277344,1931.7494670410156Q2558.8759509277343,1932.1014670410157,2559.5259509277344,1932.4864670410157Q2560.1659509277342,1932.8704670410157,2560.785950927734,1933.2864670410156Q2561.4059509277345,1933.7014670410156,2562.0159509277346,1934.1464670410155Q2562.615950927734,1934.5924670410157,2563.1959509277344,1935.0664670410156Q2563.7759509277344,1935.5414670410155,2564.325950927734,1936.0434670410157Q2564.8859509277345,1936.5464670410156,2565.4159509277342,1937.0744670410156Q2565.9459509277344,1937.6034670410156,2566.4459509277344,1938.1584670410157Q2566.9459509277344,1938.7124670410155,2567.4259509277344,1939.2904670410157Q2567.8959509277347,1939.8694670410157,2568.3459509277345,1940.4704670410156Q2568.7959509277343,1941.0714670410157,2569.205950927734,1941.6934670410155Q2569.6259509277343,1942.3154670410156,2570.0159509277346,1942.9574670410157Q2570.3959509277347,1943.5994670410155,2570.745950927734,1944.2594670410156ZM2574.365950927734,1958.6604670410156Q2574.365950927734,1959.4094670410157,2574.325950927734,1960.1574670410157Q2574.285950927734,1960.9054670410155,2574.2159509277344,1961.6504670410156Q2574.1459509277347,1962.3954670410158,2574.035950927734,1963.1364670410157Q2573.9259509277344,1963.8764670410155,2573.7759509277344,1964.6114670410157Q2573.6359509277345,1965.3454670410156,2573.4459509277344,1966.0714670410157Q2573.2659509277346,1966.7984670410156,2573.0459509277343,1967.5144670410157Q2572.8359509277343,1968.2304670410156,2572.5859509277343,1968.9354670410157Q2572.325950927734,1969.6404670410157,2572.0459509277343,1970.3324670410157Q2571.7559509277344,1971.0244670410157,2571.4359509277347,1971.7014670410156Q2571.115950927734,1972.3784670410155,2570.7659509277346,1973.0384670410156Q2570.4059509277345,1973.6984670410156,2570.0259509277344,1974.3404670410157Q2569.6359509277345,1974.9834670410155,2569.2259509277346,1975.6054670410156Q2568.8059509277346,1976.2284670410156,2568.365950927734,1976.8294670410155Q2567.9159509277342,1977.4314670410156,2567.4459509277344,1978.0094670410156Q2566.9659509277344,1978.5884670410155,2566.4659509277344,1979.1434670410156Q2565.955950927734,1979.6984670410156,2565.4359509277347,1980.2274670410156Q2564.9059509277345,1980.7574670410156,2564.3459509277345,1981.2594670410156Q2563.7959509277343,1981.7624670410155,2563.2159509277344,1982.2374670410156Q2562.6359509277345,1982.7124670410155,2562.035950927734,1983.1584670410157Q2561.4359509277347,1983.6044670410156,2560.8059509277346,1984.0204670410158Q2560.1859509277347,1984.4364670410157,2559.5459509277343,1984.8214670410157Q2558.9059509277345,1985.2064670410157,2558.245950927734,1985.5594670410155Q2557.5859509277343,1985.9124670410156,2556.9059509277345,1986.2324670410158Q2556.2259509277346,1986.5524670410157,2555.535950927734,1986.8394670410157Q2554.8459509277345,1987.1254670410156,2554.1359509277345,1987.3774670410157Q2553.4359509277347,1987.6304670410157,2552.7159509277344,1987.8474670410155Q2552.0059509277344,1988.0644670410156,2551.2759509277344,1988.2464670410156Q2550.5459509277343,1988.4284670410157,2549.8159509277343,1988.5744670410156Q2549.075950927734,1988.7204670410156,2548.3359509277343,1988.8304670410157Q2547.5959509277345,1988.9404670410156,2546.8559509277343,1989.0134670410157Q2546.1059509277343,1989.0874670410155,2545.3559509277343,1989.1244670410156Q2544.615950927734,1989.1604670410156,2543.865950927734,1989.1604670410156Q2543.115950927734,1989.1604670410156,2542.365950927734,1989.1244670410156Q2541.615950927734,1989.0874670410155,2540.8759509277343,1989.0144670410157Q2540.1259509277343,1988.9404670410156,2539.3859509277345,1988.8304670410157Q2538.6459509277347,1988.7204670410156,2537.9159509277342,1988.5744670410156Q2537.1759509277344,1988.4284670410157,2536.455950927734,1988.2464670410156Q2535.7259509277346,1988.0644670410156,2535.0059509277344,1987.8474670410155Q2534.2959509277343,1987.6304670410157,2533.5859509277343,1987.3774670410157Q2532.8859509277345,1987.1254670410156,2532.1959509277344,1986.8394670410157Q2531.495950927734,1986.5524670410157,2530.825950927734,1986.2324670410158Q2530.1459509277347,1985.9124670410156,2529.4859509277344,1985.5594670410155Q2528.825950927734,1985.2064670410157,2528.1859509277347,1984.8214670410157Q2527.5459509277343,1984.4364670410157,2526.9159509277342,1984.0204670410158Q2526.2959509277343,1983.6044670410156,2525.6959509277344,1983.1584670410157Q2525.0959509277345,1982.7124670410155,2524.5159509277346,1982.2374670410156Q2523.9359509277347,1981.7624670410155,2523.3859509277345,1981.2594670410156Q2522.825950927734,1980.7574670410156,2522.2959509277343,1980.2274670410156Q2521.7659509277346,1979.6984670410156,2521.2659509277346,1979.1434670410156Q2520.7659509277346,1978.5884670410155,2520.285950927734,1978.0094670410156Q2519.8159509277343,1977.4314670410156,2519.365950927734,1976.8294670410155Q2518.9159509277342,1976.2284670410156,2518.5059509277344,1975.6054670410156Q2518.0859509277343,1974.9834670410155,2517.705950927734,1974.3404670410157Q2517.3159509277343,1973.6984670410156,2516.9659509277344,1973.0384670410156Q2516.615950927734,1972.3784670410155,2516.2959509277343,1971.7014670410156Q2515.9759509277346,1971.0244670410157,2515.6859509277347,1970.3324670410157Q2515.3959509277347,1969.6404670410157,2515.1459509277347,1968.9354670410157Q2514.8959509277347,1968.2304670410156,2514.6759509277344,1967.5144670410157Q2514.455950927734,1966.7984670410156,2514.2759509277344,1966.0714670410157Q2514.0959509277345,1965.3454670410156,2513.9459509277344,1964.6114670410157Q2513.8059509277346,1963.8764670410155,2513.6959509277344,1963.1364670410157Q2513.5859509277343,1962.3954670410158,2513.5159509277346,1961.6504670410156Q2513.4359509277347,1960.9054670410155,2513.4059509277345,1960.1574670410157Q2513.365950927734,1959.4094670410157,2513.365950927734,1958.6604670410156Q2513.365950927734,1957.9124670410156,2513.4059509277345,1957.1644670410155Q2513.4359509277347,1956.4164670410155,2513.5159509277346,1955.6714670410156Q2513.5859509277343,1954.9264670410157,2513.6959509277344,1954.1854670410157Q2513.8059509277346,1953.4444670410157,2513.9459509277344,1952.7104670410156Q2514.0959509277345,1951.9764670410157,2514.2759509277344,1951.2494670410156Q2514.455950927734,1950.5234670410157,2514.6759509277344,1949.8074670410156Q2514.8959509277347,1949.0904670410157,2515.1459509277347,1948.3854670410155Q2515.3959509277347,1947.6804670410156,2515.6859509277347,1946.9884670410156Q2515.9759509277346,1946.2974670410156,2516.2959509277343,1945.6204670410157Q2516.615950927734,1944.9434670410155,2516.9659509277344,1944.2834670410157Q2517.3159509277343,1943.6224670410156,2517.705950927734,1942.9804670410156Q2518.0859509277343,1942.3384670410155,2518.5059509277344,1941.7154670410157Q2518.9159509277342,1941.0934670410156,2519.365950927734,1940.4924670410155Q2519.8159509277343,1939.8904670410157,2520.285950927734,1939.3114670410157Q2520.7659509277346,1938.7334670410155,2521.2659509277346,1938.1784670410157Q2521.7659509277346,1937.6234670410156,2522.2959509277343,1937.0944670410156Q2522.825950927734,1936.5644670410156,2523.3859509277345,1936.0614670410157Q2523.9359509277347,1935.5594670410155,2524.5159509277346,1935.0844670410156Q2525.0959509277345,1934.6094670410157,2525.6959509277344,1934.1624670410156Q2526.2959509277343,1933.7164670410157,2526.9159509277342,1933.3004670410155Q2527.5459509277343,1932.8854670410155,2528.1859509277347,1932.5004670410156Q2528.825950927734,1932.1154670410156,2529.4859509277344,1931.7624670410155Q2530.1459509277347,1931.4094670410157,2530.825950927734,1931.0894670410157Q2531.495950927734,1930.7694670410156,2532.1959509277344,1930.4824670410158Q2532.8859509277345,1930.1964670410157,2533.5859509277343,1929.9434670410155Q2534.2959509277343,1929.6914670410156,2535.0059509277344,1929.4744670410155Q2535.7259509277346,1929.2564670410156,2536.455950927734,1929.0744670410156Q2537.1759509277344,1928.8924670410156,2537.9159509277342,1928.7464670410156Q2538.6459509277347,1928.6004670410157,2539.3859509277345,1928.4904670410156Q2540.1259509277343,1928.3814670410156,2540.8759509277343,1928.3074670410156Q2541.615950927734,1928.2344670410157,2542.365950927734,1928.1974670410157Q2543.115950927734,1928.1604670410156,2543.865950927734,1928.1604670410156Q2544.615950927734,1928.1604670410156,2545.3559509277343,1928.1974670410157Q2546.1059509277343,1928.2344670410157,2546.8559509277343,1928.3074670410156Q2547.5959509277345,1928.3814670410156,2548.3359509277343,1928.4904670410156Q2549.075950927734,1928.6004670410157,2549.8159509277343,1928.7464670410156Q2550.5459509277343,1928.8924670410156,2551.2759509277344,1929.0744670410156Q2552.0059509277344,1929.2564670410156,2552.7159509277344,1929.4744670410155Q2553.4359509277347,1929.6914670410156,2554.1359509277345,1929.9434670410155Q2554.8459509277345,1930.1964670410157,2555.535950927734,1930.4824670410158Q2556.2259509277346,1930.7694670410156,2556.9059509277345,1931.0894670410157Q2557.5859509277343,1931.4094670410157,2558.245950927734,1931.7624670410155Q2558.9059509277345,1932.1154670410156,2559.5459509277343,1932.5004670410156Q2560.1859509277347,1932.8854670410155,2560.8059509277346,1933.3004670410155Q2561.4359509277347,1933.7164670410157,2562.035950927734,1934.1624670410156Q2562.6359509277345,1934.6094670410157,2563.2159509277344,1935.0844670410156Q2563.7959509277343,1935.5594670410155,2564.3459509277345,1936.0614670410157Q2564.9059509277345,1936.5644670410156,2565.4359509277347,1937.0944670410156Q2565.955950927734,1937.6234670410156,2566.4659509277344,1938.1784670410157Q2566.9659509277344,1938.7334670410155,2567.4459509277344,1939.3114670410157Q2567.9159509277342,1939.8904670410157,2568.365950927734,1940.4924670410155Q2568.8059509277346,1941.0934670410156,2569.2259509277346,1941.7154670410157Q2569.6359509277345,1942.3384670410155,2570.0259509277344,1942.9804670410156Q2570.4059509277345,1943.6224670410156,2570.7659509277346,1944.2834670410157Q2571.115950927734,1944.9434670410155,2571.4359509277347,1945.6204670410157Q2571.7559509277344,1946.2974670410156,2572.0459509277343,1946.9884670410156Q2572.325950927734,1947.6804670410156,2572.5859509277343,1948.3854670410155Q2572.8359509277343,1949.0904670410157,2573.0559509277346,1949.8074670410156Q2573.2659509277346,1950.5234670410157,2573.4459509277344,1951.2494670410156Q2573.6359509277345,1951.9764670410157,2573.7759509277344,1952.7104670410156Q2573.9259509277344,1953.4444670410157,2574.035950927734,1954.1854670410157Q2574.1459509277347,1954.9264670410157,2574.2159509277344,1955.6714670410156Q2574.285950927734,1956.4164670410155,2574.325950927734,1957.1644670410155Q2574.365950927734,1957.9124670410156,2574.365950927734,1958.6604670410156ZM2036.2689509277343,1636.2474670410156Q2036.2689509277343,1636.9962000410155,2036.2319509277345,1637.7440270410157Q2036.1949509277342,1638.4918570410157,2036.1219509277344,1639.2369870410157Q2036.0489509277345,1639.9821170410157,2035.9389509277344,1640.7227470410157Q2035.8289509277342,1641.4633770410155,2035.6829509277345,1642.1977170410157Q2035.5369509277343,1642.9320670410157,2035.3549509277345,1643.6583670410157Q2035.1729509277343,1644.3846570410155,2034.9559509277344,1645.1011470410156Q2034.7379509277343,1645.8176470410156,2034.4859509277344,1646.5225670410157Q2034.2339509277344,1647.2275670410156,2033.9469509277344,1647.9192670410157Q2033.6609509277343,1648.6110670410155,2033.3409509277344,1649.2878670410157Q2033.0209509277342,1649.9647670410156,2032.6679509277344,1650.6250670410157Q2032.3149509277343,1651.2853670410157,2031.9299509277344,1651.9275670410157Q2031.5449509277344,1652.5697670410157,2031.1289509277344,1653.1923670410156Q2030.7129509277343,1653.8148670410155,2030.2669509277343,1654.4162670410155Q2029.8209509277344,1655.0176670410156,2029.3459509277345,1655.5964670410156Q2028.8709509277344,1656.1752670410156,2028.3679509277345,1656.7299670410157Q2027.8649509277343,1657.2847670410156,2027.3359509277343,1657.8142670410157Q2026.8059509277343,1658.3436670410156,2026.2509509277343,1658.8464670410156Q2025.6969509277344,1659.3492670410155,2025.1179509277345,1659.8242670410157Q2024.5389509277343,1660.2992670410156,2023.9379509277344,1660.7452670410157Q2023.3359509277343,1661.1912670410156,2022.7139509277345,1661.6072670410156Q2022.0909509277344,1662.0232670410155,2021.4489509277344,1662.4081670410155Q2020.8069509277343,1662.7930670410155,2020.1469509277345,1663.1460670410156Q2019.4859509277344,1663.4989670410157,2018.8089509277343,1663.8191670410156Q2018.1329509277343,1664.1392670410157,2017.4409509277343,1664.4257670410157Q2016.7489509277343,1664.7123670410156,2016.0439509277344,1664.9645670410157Q2015.3389509277345,1665.2167670410156,2014.6229509277343,1665.4341670410156Q2013.9059509277345,1665.6514670410156,2013.1799509277344,1665.8334670410156Q2012.4529509277345,1666.0153670410157,2011.7189509277343,1666.1613670410156Q2010.9849509277344,1666.3074670410156,2010.2439509277344,1666.4173670410157Q2009.5039509277344,1666.5271670410157,2008.7589509277345,1666.6005670410157Q2008.0129509277344,1666.6739670410157,2007.2659509277344,1666.7107670410155Q2006.5179509277343,1666.7474670410156,2005.7689509277343,1666.7474670410156Q2005.0199509277345,1666.7474670410156,2004.2719509277345,1666.7107670410155Q2003.5249509277344,1666.6739670410157,2002.7789509277345,1666.6005670410157Q2002.0339509277344,1666.5271670410157,2001.2939509277344,1666.4173670410157Q2000.5529509277344,1666.3074670410156,1999.8189509277345,1666.1613670410156Q1999.0839509277343,1666.0153670410157,1998.3579509277342,1665.8333670410157Q1997.6319509277344,1665.6514670410156,1996.9149509277345,1665.4341670410156Q1996.1989509277344,1665.2167670410156,1995.4939509277344,1664.9645670410157Q1994.7889509277343,1664.7123670410156,1994.0969509277343,1664.4257670410157Q1993.4049509277343,1664.1392670410157,1992.7279509277344,1663.8191670410156Q1992.0519509277344,1663.4989670410157,1991.3909509277344,1663.1460670410156Q1990.7309509277343,1662.7930670410155,1990.0889509277345,1662.4081670410155Q1989.4469509277344,1662.0232670410155,1988.8239509277344,1661.6072670410156Q1988.2019509277343,1661.1912670410156,1987.5999509277344,1660.7452670410157Q1986.9989509277343,1660.2992670410156,1986.4199509277344,1659.8242670410157Q1985.8409509277344,1659.3492670410155,1985.2859509277343,1658.8464670410156Q1984.7319509277345,1658.3436670410156,1984.2019509277343,1657.8142670410157Q1983.6729509277343,1657.2847670410156,1983.1699509277344,1656.7299670410157Q1982.6669509277344,1656.1752670410156,1982.1919509277345,1655.5964670410156Q1981.7169509277344,1655.0176670410156,1981.2709509277342,1654.4162670410155Q1980.8249509277343,1653.8148670410155,1980.4089509277344,1653.1923670410156Q1979.9929509277345,1652.5697670410157,1979.6079509277342,1651.9275670410157Q1979.2229509277345,1651.2853670410157,1978.8699509277344,1650.6250670410157Q1978.5169509277343,1649.9647670410156,1978.1969509277344,1649.2878670410157Q1977.8769509277345,1648.6110670410155,1977.5909509277344,1647.9192670410157Q1977.3039509277344,1647.2275670410156,1977.0519509277344,1646.5225670410157Q1976.7999509277342,1645.8176470410156,1976.5819509277344,1645.1011470410156Q1976.3649509277343,1644.3846570410155,1976.1829509277345,1643.6583570410157Q1976.0009509277343,1642.9320670410157,1975.8549509277345,1642.1977170410157Q1975.7089509277343,1641.4633770410155,1975.5989509277342,1640.7227470410157Q1975.4889509277343,1639.9821170410157,1975.4159509277342,1639.2369870410157Q1975.3419509277344,1638.4918570410157,1975.3059509277343,1637.7440270410157Q1975.2689509277343,1636.9962000410155,1975.2689509277343,1636.2474670410156Q1975.2689509277343,1635.4987340410157,1975.3059509277343,1634.7509070410156Q1975.3419509277344,1634.0030770410156,1975.4159509277342,1633.2579470410155Q1975.4889509277343,1632.5128170410155,1975.5989509277342,1631.7721870410155Q1975.7089509277343,1631.0315570410157,1975.8549509277345,1630.2972170410155Q1976.0009509277343,1629.5628670410156,1976.1829509277345,1628.8365670410155Q1976.3649509277343,1628.1102770410157,1976.5819509277344,1627.3937870410157Q1976.7999509277342,1626.6772870410157,1977.0519509277344,1625.9723670410156Q1977.3039509277344,1625.2673670410156,1977.5909509277344,1624.5756670410155Q1977.8769509277345,1623.8838670410157,1978.1969509277344,1623.2070670410155Q1978.5169509277343,1622.5301670410156,1978.8699509277344,1621.8698670410156Q1979.2229509277345,1621.2095670410156,1979.6079509277342,1620.5673670410156Q1979.9929509277345,1619.9251670410156,1980.4089509277344,1619.3025670410157Q1980.8249509277343,1618.6800670410157,1981.2709509277342,1618.0786670410157Q1981.7169509277344,1617.4772670410157,1982.1919509277345,1616.8984670410157Q1982.6669509277344,1616.3196670410157,1983.1699509277344,1615.7649670410156Q1983.6729509277343,1615.2101670410157,1984.2019509277343,1614.6806670410156Q1984.7319509277345,1614.1512670410157,1985.2859509277343,1613.6484670410157Q1985.8409509277344,1613.1456670410157,1986.4199509277344,1612.6706670410156Q1986.9989509277343,1612.1956670410157,1987.5999509277344,1611.7496670410155Q1988.2019509277343,1611.3036670410156,1988.8239509277344,1610.8876670410157Q1989.4469509277344,1610.4716670410157,1990.0889509277345,1610.0867670410157Q1990.7309509277343,1609.7018670410157,1991.3909509277344,1609.3488670410156Q1992.0519509277344,1608.9959670410155,1992.7279509277344,1608.6757670410157Q1993.4049509277343,1608.3556670410155,1994.0969509277343,1608.0691670410156Q1994.7889509277343,1607.7825670410157,1995.4939509277344,1607.5303670410156Q1996.1989509277344,1607.2781670410156,1996.9149509277345,1607.0607670410157Q1997.6319509277344,1606.8434670410156,1998.3579509277342,1606.6614670410156Q1999.0839509277343,1606.4795670410156,1999.8189509277345,1606.3335670410156Q2000.5529509277344,1606.1874670410157,2001.2939509277344,1606.0775670410155Q2002.0339509277344,1605.9677670410156,2002.7789509277345,1605.8943670410156Q2003.5249509277344,1605.8209670410156,2004.2719509277345,1605.7841670410157Q2005.0199509277345,1605.7474670410156,2005.7689509277343,1605.7474670410156Q2006.5179509277343,1605.7474670410156,2007.2659509277344,1605.7841670410157Q2008.0129509277344,1605.8209670410156,2008.7589509277345,1605.8943670410156Q2009.5039509277344,1605.9677670410156,2010.2439509277344,1606.0775670410155Q2010.9849509277344,1606.1874670410157,2011.7189509277343,1606.3335670410156Q2012.4529509277345,1606.4795670410156,2013.1799509277344,1606.6615670410156Q2013.9059509277345,1606.8434670410156,2014.6229509277343,1607.0607670410157Q2015.3389509277345,1607.2781670410156,2016.0439509277344,1607.5303670410156Q2016.7489509277343,1607.7825670410157,2017.4409509277343,1608.0691670410156Q2018.1329509277343,1608.3556670410155,2018.8089509277343,1608.6757670410157Q2019.4859509277344,1608.9959670410155,2020.1469509277345,1609.3488670410156Q2020.8069509277343,1609.7018670410157,2021.4489509277344,1610.0867670410157Q2022.0909509277344,1610.4716670410157,2022.7139509277345,1610.8876670410157Q2023.3359509277343,1611.3036670410156,2023.9379509277344,1611.7496670410155Q2024.5389509277343,1612.1956670410157,2025.1179509277345,1612.6706670410156Q2025.6969509277344,1613.1456670410157,2026.2509509277343,1613.6484670410157Q2026.8059509277343,1614.1512670410157,2027.3359509277343,1614.6806670410156Q2027.8649509277343,1615.2101670410157,2028.3679509277345,1615.7649670410156Q2028.8709509277344,1616.3196670410157,2029.3459509277345,1616.8984670410157Q2029.8209509277344,1617.4772670410157,2030.2669509277343,1618.0786670410157Q2030.7129509277343,1618.6800670410157,2031.1289509277344,1619.3025670410157Q2031.5449509277344,1619.9251670410156,2031.9299509277344,1620.5673670410156Q2032.3149509277343,1621.2095670410156,2032.6679509277344,1621.8698670410156Q2033.0209509277342,1622.5301670410156,2033.3409509277344,1623.2070670410155Q2033.6609509277343,1623.8838670410157,2033.9469509277344,1624.5756670410155Q2034.2339509277344,1625.2673670410156,2034.4859509277344,1625.9723670410156Q2034.7379509277343,1626.6772870410157,2034.9559509277344,1627.3937870410157Q2035.1729509277343,1628.1102770410157,2035.3549509277345,1628.8365770410155Q2035.5369509277343,1629.5628670410156,2035.6829509277345,1630.2972170410155Q2035.8289509277342,1631.0315570410157,2035.9389509277344,1631.7721870410155Q2036.0489509277345,1632.5128170410155,2036.1219509277344,1633.2579470410155Q2036.1949509277342,1634.0030770410156,2036.2319509277345,1634.7509070410156Q2036.2689509277343,1635.4987340410157,2036.2689509277343,1636.2474670410156Z" fill="#03045C" fill-opacity="1"/></g><g><path d="M1682.2532653808594,2263.7450561523438Q1682.2532653808594,2296.9090561523435,1688.8277653808593,2329.083056152344Q1695.2302653808595,2360.415056152344,1707.6689653808594,2389.8650561523436Q1719.8856653808593,2418.790056152344,1737.4950653808594,2444.8920561523437Q1754.9442653808594,2470.7570561523435,1777.0192653808595,2492.8630561523437Q1799.0932653808593,2514.9680561523437,1824.9192653808593,2532.440056152344Q1850.9792653808595,2550.0710561523438,1879.8562653808594,2562.3020561523435Q1909.2552653808593,2574.7540561523438,1940.5322653808594,2581.1640561523436Q1972.6492653808593,2587.7450561523438,2005.7532653808594,2587.7450561523438Q2038.8572653808594,2587.7450561523438,2070.9742653808594,2581.1640561523436Q2102.2512653808594,2574.7540561523438,2131.6502653808593,2562.3020561523435Q2160.5272653808593,2550.0710561523438,2186.587265380859,2532.440056152344Q2212.4132653808592,2514.9680561523437,2234.4872653808593,2492.8630561523437Q2256.5622653808596,2470.7570561523435,2274.011265380859,2444.8920561523437Q2291.6212653808593,2418.790056152344,2303.837265380859,2389.8650561523436Q2316.2762653808595,2360.415056152344,2322.6782653808596,2329.083056152344Q2329.2532653808594,2296.9090561523435,2329.2532653808594,2263.7450561523438Q2329.2532653808594,2230.581056152344,2322.6782653808596,2198.4070561523436Q2316.2762653808595,2167.0750561523437,2303.837265380859,2137.625056152344Q2291.6212653808593,2108.7000561523437,2274.011265380859,2082.598056152344Q2256.5622653808596,2056.7330561523436,2234.4872653808593,2034.6270561523438Q2212.4132653808592,2012.5220561523438,2186.587265380859,1995.0498561523436Q2160.5272653808593,1977.4190561523437,2131.6502653808593,1965.1880561523437Q2102.2512653808594,1952.7356561523438,2070.9742653808594,1946.3263561523438Q2038.8572653808594,1939.7450561523438,2005.7532653808594,1939.7450561523438Q1972.6492653808593,1939.7450561523438,1940.5322653808594,1946.3263561523438Q1909.2552653808593,1952.7356561523438,1879.8562653808594,1965.1879561523438Q1850.9792653808595,1977.4190561523437,1824.9192653808593,1995.0498561523436Q1799.0932653808593,2012.5220561523438,1777.0192653808595,2034.6270561523438Q1754.9442653808594,2056.7330561523436,1737.4950653808594,2082.598056152344Q1719.8856653808593,2108.7000561523437,1707.6689653808594,2137.625056152344Q1695.2303653808594,2167.074056152344,1688.8278653808593,2198.4070561523436Q1682.2532653808594,2230.581056152344,1682.2532653808594,2263.7450561523438L1682.2532653808594,2263.7450561523438ZM1621.2532653808594,2263.7450561523438Q1621.2532653808594,2224.413056152344,1629.0627653808594,2186.1950561523436Q1636.6787653808594,2148.924056152344,1651.4756733808595,2113.8900561523437Q1666.0001653808595,2079.502056152344,1686.9266653808593,2048.4830561523436Q1707.6471653808594,2017.7690561523436,1733.8553653808594,1991.5240561523437Q1760.0652653808593,1965.2776561523438,1790.7372653808593,1944.5261561523437Q1821.7182653808593,1923.5666561523437,1856.0652653808593,1909.0187661523437Q1891.0582653808594,1894.1970561523437,1928.2872653808595,1886.5681561523438Q1966.4632653808594,1878.7450561523438,2005.7532653808594,1878.7450561523438Q2045.0432653808593,1878.7450561523438,2083.2192653808593,1886.5681561523438Q2120.4482653808595,1894.1970561523437,2155.442265380859,1909.0187741523437Q2189.7882653808592,1923.5666561523437,2220.7692653808595,1944.5261561523437Q2251.442265380859,1965.2777561523437,2277.6512653808595,1991.5240561523437Q2303.859265380859,2017.7690561523436,2324.5802653808596,2048.4830561523436Q2345.5062653808595,2079.502056152344,2360.0312653808596,2113.8900561523437Q2374.828265380859,2148.924056152344,2382.4432653808594,2186.1950561523436Q2390.2532653808594,2224.413056152344,2390.2532653808594,2263.7450561523438Q2390.2532653808594,2303.0770561523436,2382.4432653808594,2341.295056152344Q2374.828265380859,2378.5660561523437,2360.0312653808596,2413.6000561523438Q2345.5062653808595,2447.9880561523437,2324.5802653808596,2479.0070561523435Q2303.859265380859,2509.721056152344,2277.6512653808595,2535.9660561523438Q2251.4412653808595,2562.212056152344,2220.7692653808595,2582.964056152344Q2189.7882653808592,2603.9230561523436,2155.442265380859,2618.471056152344Q2120.4492653808593,2633.2930561523435,2083.2192653808593,2640.922056152344Q2045.0432653808593,2648.7450561523438,2005.7532653808594,2648.7450561523438Q1966.4632653808594,2648.7450561523438,1928.2872653808595,2640.922056152344Q1891.0582653808594,2633.2930561523435,1856.0652653808593,2618.471056152344Q1821.7182653808593,2603.9230561523436,1790.7372653808593,2582.964056152344Q1760.0652653808593,2562.212056152344,1733.8553653808594,2535.9660561523438Q1707.6471653808594,2509.721056152344,1686.9266653808593,2479.0070561523435Q1666.0001653808595,2447.9880561523437,1651.4756503808594,2413.6000561523438Q1636.6786653808595,2378.5660561523437,1629.0627653808594,2341.295056152344Q1621.2532653808594,2303.0770561523436,1621.2532653808594,2263.7450561523438L1621.2532653808594,2263.7450561523438Z" fill="#03045C" fill-opacity="1"/></g><g style="mix-blend-mode:passthrough" transform="matrix(0.9925462603569031,-0.12186935544013977,0.12186935544013977,0.9925462603569031,-159.65192248988978,286.67874571458856)"><g><path d="M2294.2532653808594,1599.9802131652832Q2294.2532653808594,1622.7952131652833,2306.1941653808594,1643.9682131652833Q2312.1709653808593,1654.5662131652832,2320.9137653808593,1664.2722131652831Q2329.8173653808594,1674.1562131652831,2341.2183653808593,1682.7072131652833Q2352.8596653808595,1691.437213165283,2366.5992653808594,1698.3992131652833Q2380.6682653808593,1705.5282131652832,2396.3492653808594,1710.5022131652831Q2429.3792653808596,1720.9802131652832,2465.7532653808594,1720.9802131652832Q2502.127265380859,1720.9802131652832,2535.1572653808594,1710.5022131652831Q2550.8382653808594,1705.5282131652832,2564.9072653808594,1698.3992131652833Q2578.6472653808596,1691.437213165283,2590.2882653808592,1682.7072131652833Q2601.6892653808595,1674.1562131652831,2610.5932653808595,1664.2722131652831Q2619.3352653808593,1654.5662131652832,2625.3122653808596,1643.9682131652833Q2637.2532653808594,1622.7952131652833,2637.2532653808594,1599.9802131652832Q2637.2532653808594,1577.1652131652831,2625.3122653808596,1555.9922131652831Q2619.3352653808593,1545.3943131652832,2610.5932653808595,1535.6886131652832Q2601.6892653808595,1525.8044131652832,2590.2882653808592,1517.2537131652832Q2578.6472653808596,1508.5227131652832,2564.9072653808594,1501.5609131652832Q2550.8382653808594,1494.4325131652831,2535.1572653808594,1489.4581131652833Q2502.127265380859,1478.9802131652832,2465.7532653808594,1478.9802131652832Q2429.3792653808596,1478.9802131652832,2396.3492653808594,1489.4581131652833Q2380.6682653808593,1494.432613165283,2366.5992653808594,1501.5609131652832Q2352.8597653808592,1508.5227131652832,2341.2183653808593,1517.2537131652832Q2329.8173653808594,1525.8044131652832,2320.9137653808593,1535.6886131652832Q2312.1709653808593,1545.3943131652832,2306.1941653808594,1555.9922131652831Q2294.2532653808594,1577.1652131652831,2294.2532653808594,1599.9802131652832ZM2233.2532653808594,1599.9802131652832Q2233.2532653808594,1580.4032131652832,2238.4328653808593,1561.4192131652833Q2243.429665380859,1543.105613165283,2253.0612653808594,1526.0272131652832Q2262.3438253808595,1509.5677131652833,2275.5906653808593,1494.861913165283Q2288.467865380859,1480.5665131652831,2304.6185653808593,1468.4536131652833Q2320.5288653808593,1456.5209131652832,2339.028565380859,1447.1472631652832Q2357.5088653808593,1437.7835131652832,2377.904265380859,1431.3136131652832Q2398.5322653808594,1424.7699131652832,2420.417265380859,1421.4111131652833Q2442.7722653808596,1417.9802131652832,2465.7532653808594,1417.9802131652832Q2488.734265380859,1417.9802131652832,2511.0892653808596,1421.4111131652833Q2532.9742653808594,1424.7699131652832,2553.6022653808595,1431.3136131652832Q2573.9972653808595,1437.7835131652832,2592.4782653808593,1447.1472631652832Q2610.9772653808595,1456.5209231652832,2626.8882653808596,1468.4536131652833Q2643.0382653808592,1480.5665131652831,2655.9162653808594,1494.861913165283Q2669.1622653808595,1509.5677131652833,2678.4452653808594,1526.0272131652832Q2688.0772653808594,1543.1057131652833,2693.0732653808595,1561.4192131652833Q2698.2532653808594,1580.4032131652832,2698.2532653808594,1599.9802131652832Q2698.2532653808594,1619.5572131652832,2693.0732653808595,1638.5412131652831Q2688.0772653808594,1656.8552131652832,2678.4452653808594,1673.9332131652832Q2669.1622653808595,1690.3932131652832,2655.9162653808594,1705.0982131652831Q2643.0382653808592,1719.3942131652832,2626.8882653808596,1731.5072131652832Q2610.9772653808595,1743.4392131652833,2592.4782653808593,1752.8132131652833Q2573.9982653808593,1762.1772131652833,2553.6022653808595,1768.6472131652831Q2532.9742653808594,1775.1902131652832,2511.0892653808596,1778.5492131652832Q2488.734265380859,1781.9802131652832,2465.7532653808594,1781.9802131652832Q2442.7722653808596,1781.9802131652832,2420.417265380859,1778.5492131652832Q2398.5322653808594,1775.1902131652832,2377.904265380859,1768.6472131652831Q2357.5086653808594,1762.1772131652833,2339.0286653808594,1752.8132131652833Q2320.5288653808593,1743.4392131652833,2304.6185653808593,1731.5072131652832Q2288.467865380859,1719.3942131652832,2275.5906653808593,1705.0982131652831Q2262.3438253808595,1690.3932131652832,2253.0612653808594,1673.9332131652832Q2243.429665380859,1656.8552131652832,2238.4328653808593,1638.5412131652831Q2233.2532653808594,1619.5572131652832,2233.2532653808594,1599.9802131652832Z" fill="#03045C" fill-opacity="1"/></g><g><path d="M2233.3075103759766,2238.4219245910645L2233.3075103759766,1595.4219245910645Q2233.3075103759766,1594.6731915910646,2233.3442103759767,1593.9253645910644Q2233.3810103759765,1593.1775345910644,2233.4544103759767,1592.4324045910644Q2233.5278103759765,1591.6872745910644,2233.6376103759767,1590.9466445910643Q2233.7475103759766,1590.2060145910646,2233.8936103759766,1589.4716745910644Q2234.0396103759767,1588.7373245910644,2234.2216103759765,1588.0110245910644Q2234.4035103759766,1587.2847345910645,2234.6208103759764,1586.5682445910645Q2234.8382103759764,1585.8517445910645,2235.0904103759767,1585.1468245910644Q2235.3426103759766,1584.4418245910645,2235.6292103759765,1583.7501245910644Q2235.9157103759767,1583.0583245910645,2236.2358103759766,1582.3815245910644Q2236.5560103759767,1581.7046245910644,2236.9089103759766,1581.0443245910644Q2237.2619103759766,1580.3840245910644,2237.6468103759767,1579.7418245910644Q2238.0317103759767,1579.0996245910644,2238.4477103759764,1578.4770245910645Q2238.8637103759766,1577.8545245910645,2239.3097103759765,1577.2531245910645Q2239.7557103759764,1576.6517245910645,2240.2307103759767,1576.0729245910645Q2240.7057103759767,1575.4941245910645,2241.2085103759764,1574.9394245910644Q2241.7113103759766,1574.3846245910645,2242.2407103759765,1573.8551245910644Q2242.7702103759766,1573.3257245910645,2243.3250103759765,1572.8229245910645Q2243.8797103759766,1572.3201245910645,2244.4585103759764,1571.8451245910644Q2245.0373103759766,1571.3701245910645,2245.6387103759766,1570.9241245910644Q2246.2401103759767,1570.4781245910644,2246.8626103759766,1570.0621245910645Q2247.4852103759767,1569.6461245910646,2248.1274103759765,1569.2612245910645Q2248.7696103759768,1568.8763245910645,2249.4299103759768,1568.5233245910645Q2250.0902103759768,1568.1704245910644,2250.7671103759767,1567.8502245910645Q2251.4439103759764,1567.5301245910644,2252.1357103759765,1567.2436245910644Q2252.8274103759763,1566.9570245910645,2253.5324103759767,1566.7048245910644Q2254.2373303759764,1566.4526245910645,2254.9538303759764,1566.2352245910645Q2255.6703203759766,1566.0179245910645,2256.3966203759765,1565.8359245910644Q2257.1229103759765,1565.6540245910644,2257.8572603759767,1565.5080245910644Q2258.5916003759767,1565.3619245910645,2259.3322303759765,1565.2520245910644Q2260.0728603759767,1565.1422245910644,2260.8179903759765,1565.0688245910644Q2261.5631203759767,1564.9954245910644,2262.3109503759765,1564.9586245910646Q2263.0587773759767,1564.9219245910645,2263.8075103759766,1564.9219245910645Q2264.5562433759765,1564.9219245910645,2265.3040703759766,1564.9586245910646Q2266.0519003759764,1564.9954245910644,2266.7970303759766,1565.0688245910644Q2267.5421603759764,1565.1422245910644,2268.2827903759767,1565.2520245910644Q2269.0234203759765,1565.3619245910645,2269.7577603759764,1565.5080245910644Q2270.4921103759766,1565.6540245910644,2271.2184103759764,1565.8360245910644Q2271.9447003759765,1566.0179245910645,2272.6611903759767,1566.2352245910645Q2273.3776903759767,1566.4526245910645,2274.0826103759764,1566.7048245910644Q2274.787610375977,1566.9570245910645,2275.4793103759766,1567.2436245910644Q2276.1711103759767,1567.5301245910644,2276.8479103759764,1567.8502245910645Q2277.5248103759764,1568.1704245910644,2278.1851103759764,1568.5233245910645Q2278.8454103759764,1568.8763245910645,2279.4876103759766,1569.2612245910645Q2280.1298103759764,1569.6461245910646,2280.7524103759765,1570.0621245910645Q2281.3749103759765,1570.4781245910644,2281.9763103759765,1570.9241245910644Q2282.5777103759765,1571.3701245910645,2283.1565103759767,1571.8451245910644Q2283.7353103759765,1572.3201245910645,2284.2900103759766,1572.8229245910645Q2284.8448103759765,1573.3257245910645,2285.3743103759766,1573.8551245910644Q2285.9037103759765,1574.3846245910645,2286.4065103759767,1574.9394245910644Q2286.9093103759765,1575.4941245910645,2287.3843103759764,1576.0729245910645Q2287.8593103759767,1576.6517245910645,2288.3053103759767,1577.2531245910645Q2288.7513103759766,1577.8545245910645,2289.1673103759767,1578.4770245910645Q2289.5833103759765,1579.0996245910644,2289.9682103759765,1579.7418245910644Q2290.3531103759765,1580.3840245910644,2290.7061103759766,1581.0443245910644Q2291.0590103759764,1581.7046245910644,2291.3792103759765,1582.3815245910644Q2291.6993103759764,1583.0583245910645,2291.9858103759766,1583.7501245910644Q2292.2724103759765,1584.4418245910645,2292.5246103759764,1585.1468245910644Q2292.7768103759768,1585.8517445910645,2292.9942103759768,1586.5682445910645Q2293.2115103759766,1587.2847345910645,2293.3935103759763,1588.0110345910643Q2293.5754103759764,1588.7373245910644,2293.7214103759766,1589.4716745910644Q2293.8675103759765,1590.2060145910646,2293.9774103759764,1590.9466445910643Q2294.0872103759766,1591.6872745910644,2294.1606103759764,1592.4324045910644Q2294.2340103759766,1593.1775345910644,2294.2708103759765,1593.9253645910644Q2294.3075103759766,1594.6731915910646,2294.3075103759766,1595.4219245910645L2294.3075103759766,2238.4219245910645Q2294.3075103759766,2239.1709245910642,2294.2708103759765,2239.9189245910643Q2294.2340103759766,2240.6659245910646,2294.1606103759764,2241.4119245910642Q2294.0872103759766,2242.1569245910646,2293.9774103759764,2242.8969245910644Q2293.8675103759765,2243.6379245910643,2293.7214103759766,2244.3719245910643Q2293.5754103759764,2245.1069245910644,2293.3934103759766,2245.8329245910645Q2293.2115103759766,2246.558924591064,2292.9942103759768,2247.2759245910647Q2292.7768103759768,2247.9919245910646,2292.5246103759764,2248.6969245910645Q2292.2724103759765,2249.4019245910645,2291.9858103759766,2250.0939245910645Q2291.6993103759764,2250.7859245910645,2291.3792103759765,2251.4619245910644Q2291.0590103759764,2252.1389245910646,2290.7061103759766,2252.7999245910646Q2290.3531103759765,2253.4599245910645,2289.9682103759765,2254.1019245910643Q2289.5833103759765,2254.7439245910646,2289.1673103759767,2255.3669245910646Q2288.7513103759766,2255.9889245910645,2288.3053103759767,2256.5909245910643Q2287.8593103759767,2257.1919245910644,2287.3843103759764,2257.7709245910646Q2286.9093103759765,2258.3499245910643,2286.4065103759767,2258.9049245910646Q2285.9037103759765,2259.4589245910647,2285.3743103759766,2259.9889245910645Q2284.8448103759765,2260.5179245910645,2284.2900103759766,2261.0209245910646Q2283.7353103759765,2261.5239245910643,2283.1565103759767,2261.9989245910647Q2282.5777103759765,2262.4739245910646,2281.9763103759765,2262.9199245910645Q2281.3749103759765,2263.3659245910644,2280.7524103759765,2263.7819245910646Q2280.1298103759764,2264.1979245910643,2279.4876103759766,2264.5829245910645Q2278.8454103759764,2264.9679245910647,2278.1851103759764,2265.3209245910643Q2277.5248103759764,2265.6729245910647,2276.8479103759764,2265.9939245910646Q2276.1711103759767,2266.3139245910643,2275.4793103759766,2266.5999245910643Q2274.787610375977,2266.8869245910646,2274.0826103759764,2267.1389245910646Q2273.3776903759767,2267.3909245910645,2272.6611903759767,2267.6089245910644Q2271.9447003759765,2267.8259245910644,2271.2184003759767,2268.0079245910647Q2270.4921103759766,2268.1899245910645,2269.7577603759764,2268.335924591064Q2269.0234203759765,2268.4819245910644,2268.2827903759767,2268.5919245910645Q2267.5421603759764,2268.701924591064,2266.7970303759766,2268.7749245910645Q2266.0519003759764,2268.8479245910644,2265.3040703759766,2268.884924591064Q2264.5562433759765,2268.9219245910645,2263.8075103759766,2268.9219245910645Q2263.0587773759767,2268.9219245910645,2262.3109503759765,2268.884924591064Q2261.5631203759767,2268.8479245910644,2260.8179903759765,2268.7749245910645Q2260.0728603759767,2268.701924591064,2259.3322303759765,2268.5919245910645Q2258.5916003759767,2268.4819245910644,2257.8572603759767,2268.335924591064Q2257.1229103759765,2268.1899245910645,2256.3966103759767,2268.0079245910647Q2255.6703203759766,2267.8259245910644,2254.9538303759764,2267.6089245910644Q2254.2373303759764,2267.3909245910645,2253.5324103759767,2267.1389245910646Q2252.8274103759763,2266.8869245910646,2252.1357103759765,2266.5999245910643Q2251.4439103759764,2266.3139245910643,2250.7671103759767,2265.9939245910646Q2250.0902103759768,2265.6729245910647,2249.4299103759768,2265.3209245910643Q2248.7696103759768,2264.9679245910647,2248.1274103759765,2264.5829245910645Q2247.4852103759767,2264.1979245910643,2246.8626103759766,2263.7819245910646Q2246.2401103759767,2263.3659245910644,2245.6387103759766,2262.9199245910645Q2245.0373103759766,2262.4739245910646,2244.4585103759764,2261.9989245910647Q2243.8797103759766,2261.5239245910643,2243.3250103759765,2261.0209245910646Q2242.7702103759766,2260.5179245910645,2242.2407103759765,2259.9889245910645Q2241.7113103759766,2259.4589245910647,2241.2085103759764,2258.9039245910644Q2240.7057103759767,2258.3499245910643,2240.2307103759767,2257.7709245910646Q2239.7557103759764,2257.1919245910644,2239.3097103759765,2256.5909245910643Q2238.8637103759766,2255.9889245910645,2238.4477103759764,2255.3669245910646Q2238.0317103759767,2254.7439245910646,2237.6468103759767,2254.1019245910643Q2237.2619103759766,2253.4599245910645,2236.9089103759766,2252.7999245910646Q2236.5560103759767,2252.1389245910646,2236.2358103759766,2251.4619245910644Q2235.9157103759767,2250.7859245910645,2235.6292103759765,2250.0939245910645Q2235.3426103759766,2249.4019245910645,2235.0904103759767,2248.6969245910645Q2234.8382103759764,2247.9919245910646,2234.6208103759764,2247.2759245910647Q2234.4035103759766,2246.558924591064,2234.221510375977,2245.8329245910645Q2234.0396103759767,2245.1069245910644,2233.8936103759766,2244.3719245910643Q2233.7475103759766,2243.6379245910643,2233.6376103759767,2242.8969245910644Q2233.5278103759765,2242.1569245910646,2233.4544103759767,2241.4119245910642Q2233.3810103759765,2240.6659245910646,2233.3442103759767,2239.9189245910643Q2233.3075103759766,2239.1709245910642,2233.3075103759766,2238.4219245910645ZM2294.3075103759766,2238.4219245910645Q2294.3075103759766,2239.1709245910642,2294.2708103759765,2239.9189245910643Q2294.2340103759766,2240.6659245910646,2294.1606103759764,2241.4119245910642Q2294.0872103759766,2242.1569245910646,2293.9774103759764,2242.8969245910644Q2293.8675103759765,2243.6379245910643,2293.7214103759766,2244.3719245910643Q2293.5754103759764,2245.1069245910644,2293.3934103759766,2245.8329245910645Q2293.2115103759766,2246.558924591064,2292.9942103759768,2247.2759245910647Q2292.7768103759768,2247.9919245910646,2292.5246103759764,2248.6969245910645Q2292.2724103759765,2249.4019245910645,2291.9858103759766,2250.0939245910645Q2291.6993103759764,2250.7859245910645,2291.3792103759765,2251.4619245910644Q2291.0590103759764,2252.1389245910646,2290.7061103759766,2252.7999245910646Q2290.3531103759765,2253.4599245910645,2289.9682103759765,2254.1019245910643Q2289.5833103759765,2254.7439245910646,2289.1673103759767,2255.3669245910646Q2288.7513103759766,2255.9889245910645,2288.3053103759767,2256.5909245910643Q2287.8593103759767,2257.1919245910644,2287.3843103759764,2257.7709245910646Q2286.9093103759765,2258.3499245910643,2286.4065103759767,2258.9049245910646Q2285.9037103759765,2259.4589245910647,2285.3743103759766,2259.9889245910645Q2284.8448103759765,2260.5179245910645,2284.2900103759766,2261.0209245910646Q2283.7353103759765,2261.5239245910643,2283.1565103759767,2261.9989245910647Q2282.5777103759765,2262.4739245910646,2281.9763103759765,2262.9199245910645Q2281.3749103759765,2263.3659245910644,2280.7524103759765,2263.7819245910646Q2280.1298103759764,2264.1979245910643,2279.4876103759766,2264.5829245910645Q2278.8454103759764,2264.9679245910647,2278.1851103759764,2265.3209245910643Q2277.5248103759764,2265.6729245910647,2276.8479103759764,2265.9939245910646Q2276.1711103759767,2266.3139245910643,2275.4793103759766,2266.5999245910643Q2274.787610375977,2266.8869245910646,2274.0826103759764,2267.1389245910646Q2273.3776903759767,2267.3909245910645,2272.6611903759767,2267.6089245910644Q2271.9447003759765,2267.8259245910644,2271.2184003759767,2268.0079245910647Q2270.4921103759766,2268.1899245910645,2269.7577603759764,2268.335924591064Q2269.0234203759765,2268.4819245910644,2268.2827903759767,2268.5919245910645Q2267.5421603759764,2268.701924591064,2266.7970303759766,2268.7749245910645Q2266.0519003759764,2268.8479245910644,2265.3040703759766,2268.884924591064Q2264.5562433759765,2268.9219245910645,2263.8075103759766,2268.9219245910645Q2263.0587773759767,2268.9219245910645,2262.3109503759765,2268.884924591064Q2261.5631203759767,2268.8479245910644,2260.8179903759765,2268.7749245910645Q2260.0728603759767,2268.701924591064,2259.3322303759765,2268.5919245910645Q2258.5916003759767,2268.4819245910644,2257.8572603759767,2268.335924591064Q2257.1229103759765,2268.1899245910645,2256.3966103759767,2268.0079245910647Q2255.6703203759766,2267.8259245910644,2254.9538303759764,2267.6089245910644Q2254.2373303759764,2267.3909245910645,2253.5324103759767,2267.1389245910646Q2252.8274103759763,2266.8869245910646,2252.1357103759765,2266.5999245910643Q2251.4439103759764,2266.3139245910643,2250.7671103759767,2265.9939245910646Q2250.0902103759768,2265.6729245910647,2249.4299103759768,2265.3209245910643Q2248.7696103759768,2264.9679245910647,2248.1274103759765,2264.5829245910645Q2247.4852103759767,2264.1979245910643,2246.8626103759766,2263.7819245910646Q2246.2401103759767,2263.3659245910644,2245.6387103759766,2262.9199245910645Q2245.0373103759766,2262.4739245910646,2244.4585103759764,2261.9989245910647Q2243.8797103759766,2261.5239245910643,2243.3250103759765,2261.0209245910646Q2242.7702103759766,2260.5179245910645,2242.2407103759765,2259.9889245910645Q2241.7113103759766,2259.4589245910647,2241.2085103759764,2258.9039245910644Q2240.7057103759767,2258.3499245910643,2240.2307103759767,2257.7709245910646Q2239.7557103759764,2257.1919245910644,2239.3097103759765,2256.5909245910643Q2238.8637103759766,2255.9889245910645,2238.4477103759764,2255.3669245910646Q2238.0317103759767,2254.7439245910646,2237.6468103759767,2254.1019245910643Q2237.2619103759766,2253.4599245910645,2236.9089103759766,2252.7999245910646Q2236.5560103759767,2252.1389245910646,2236.2358103759766,2251.4619245910644Q2235.9157103759767,2250.7859245910645,2235.6292103759765,2250.0939245910645Q2235.3426103759766,2249.4019245910645,2235.0904103759767,2248.6969245910645Q2234.8382103759764,2247.9919245910646,2234.6208103759764,2247.2759245910647Q2234.4035103759766,2246.558924591064,2234.221510375977,2245.8329245910645Q2234.0396103759767,2245.1069245910644,2233.8936103759766,2244.3719245910643Q2233.7475103759766,2243.6379245910643,2233.6376103759767,2242.8969245910644Q2233.5278103759765,2242.1569245910646,2233.4544103759767,2241.4119245910642Q2233.3810103759765,2240.6659245910646,2233.3442103759767,2239.9189245910643Q2233.3075103759766,2239.1709245910642,2233.3075103759766,2238.4219245910645Q2233.3075103759766,2237.6729245910647,2233.3442103759767,2236.9249245910646Q2233.3810103759765,2236.1779245910643,2233.4544103759767,2235.4319245910647Q2233.5278103759765,2234.6869245910643,2233.6376103759767,2233.9469245910645Q2233.7475103759766,2233.2059245910646,2233.8936103759766,2232.4719245910646Q2234.0396103759767,2231.7369245910645,2234.2216103759765,2231.0109245910644Q2234.4035103759766,2230.2849245910647,2234.6208103759764,2229.567924591064Q2234.8382103759764,2228.8519245910643,2235.0904103759767,2228.1469245910644Q2235.3426103759766,2227.4419245910644,2235.6292103759765,2226.7499245910644Q2235.9157103759767,2226.0579245910644,2236.2358103759766,2225.3819245910645Q2236.5560103759767,2224.7049245910644,2236.9089103759766,2224.0439245910643Q2237.2619103759766,2223.3839245910644,2237.6468103759767,2222.7419245910646Q2238.0317103759767,2222.0999245910643,2238.4477103759764,2221.4769245910643Q2238.8637103759766,2220.8539245910642,2239.3097103759765,2220.2529245910646Q2239.7557103759764,2219.6519245910645,2240.2307103759767,2219.0729245910643Q2240.7057103759767,2218.4939245910646,2241.2085103759764,2217.9389245910643Q2241.7113103759766,2217.384924591064,2242.2407103759765,2216.8549245910644Q2242.7702103759766,2216.3259245910644,2243.3250103759765,2215.8229245910643Q2243.8797103759766,2215.3199245910646,2244.4585103759764,2214.8449245910642Q2245.0373103759766,2214.3699245910643,2245.6387103759766,2213.9239245910644Q2246.2401103759767,2213.4779245910645,2246.8626103759766,2213.0619245910643Q2247.4852103759767,2212.6459245910646,2248.1274103759765,2212.2609245910644Q2248.7696103759768,2211.875924591064,2249.4299103759768,2211.5229245910646Q2250.0902103759768,2211.1699245910645,2250.7671103759767,2210.8499245910643Q2251.4439103759764,2210.5299245910646,2252.1357103759765,2210.2439245910646Q2252.8274103759763,2209.9569245910643,2253.5324103759767,2209.7049245910644Q2254.2373303759764,2209.4529245910644,2254.9538303759764,2209.2349245910646Q2255.6703203759766,2209.0179245910645,2256.3966203759765,2208.835924591064Q2257.1229103759765,2208.6539245910644,2257.8572603759767,2208.5079245910647Q2258.5916003759767,2208.3619245910645,2259.3322303759765,2208.2519245910644Q2260.0728603759767,2208.1419245910647,2260.8179903759765,2208.0689245910644Q2261.5631203759767,2207.9949245910643,2262.3109503759765,2207.9589245910647Q2263.0587773759767,2207.9219245910645,2263.8075103759766,2207.9219245910645Q2264.5562433759765,2207.9219245910645,2265.3040703759766,2207.9589245910647Q2266.0519003759764,2207.9949245910643,2266.7970303759766,2208.0689245910644Q2267.5421603759764,2208.1419245910647,2268.2827903759767,2208.2519245910644Q2269.0234203759765,2208.3619245910645,2269.7577603759764,2208.5079245910647Q2270.4921103759766,2208.6539245910644,2271.2184103759764,2208.835924591064Q2271.9447003759765,2209.0179245910645,2272.6611903759767,2209.2349245910646Q2273.3776903759767,2209.4529245910644,2274.0826103759764,2209.7049245910644Q2274.787610375977,2209.9569245910643,2275.4793103759766,2210.2439245910646Q2276.1711103759767,2210.5299245910646,2276.8479103759764,2210.8499245910643Q2277.5248103759764,2211.1699245910645,2278.1851103759764,2211.5229245910646Q2278.8454103759764,2211.875924591064,2279.4876103759766,2212.2609245910644Q2280.1298103759764,2212.6459245910646,2280.7524103759765,2213.0619245910643Q2281.3749103759765,2213.4779245910645,2281.9763103759765,2213.9239245910644Q2282.5777103759765,2214.3699245910643,2283.1565103759767,2214.8449245910642Q2283.7353103759765,2215.3199245910646,2284.2900103759766,2215.8229245910643Q2284.8448103759765,2216.3259245910644,2285.3743103759766,2216.8549245910644Q2285.9037103759765,2217.384924591064,2286.4065103759767,2217.9389245910643Q2286.9093103759765,2218.4939245910646,2287.3843103759764,2219.0729245910643Q2287.8593103759767,2219.6519245910645,2288.3053103759767,2220.2529245910646Q2288.7513103759766,2220.8539245910642,2289.1673103759767,2221.4769245910643Q2289.5833103759765,2222.0999245910643,2289.9682103759765,2222.7419245910646Q2290.3531103759765,2223.3839245910644,2290.7061103759766,2224.0439245910643Q2291.0590103759764,2224.7049245910644,2291.3792103759765,2225.3819245910645Q2291.6993103759764,2226.0579245910644,2291.9858103759766,2226.7499245910644Q2292.2724103759765,2227.4419245910644,2292.5246103759764,2228.1469245910644Q2292.7768103759768,2228.8519245910643,2292.9942103759768,2229.567924591064Q2293.2115103759766,2230.2849245910647,2293.3935103759763,2231.0109245910644Q2293.5754103759764,2231.7369245910645,2293.7214103759766,2232.4719245910646Q2293.8675103759765,2233.2059245910646,2293.9774103759764,2233.9469245910645Q2294.0872103759766,2234.6869245910643,2294.1606103759764,2235.4319245910647Q2294.2340103759766,2236.1779245910643,2294.2708103759765,2236.9249245910646Q2294.3075103759766,2237.6729245910647,2294.3075103759766,2238.4219245910645ZM2294.3075103759766,1595.4219245910645Q2294.3075103759766,1596.1706575910644,2294.2708103759765,1596.9184845910645Q2294.2340103759766,1597.6663145910645,2294.1606103759764,1598.4114445910645Q2294.0872103759766,1599.1565745910646,2293.9774103759764,1599.8972045910646Q2293.8675103759765,1600.6378345910643,2293.7214103759766,1601.3721745910645Q2293.5754103759764,1602.1065245910645,2293.3934103759766,1602.8328245910645Q2293.2115103759766,1603.5591145910644,2292.9942103759768,1604.2756045910644Q2292.7768103759768,1604.9921045910644,2292.5246103759764,1605.6970245910645Q2292.2724103759765,1606.4020245910644,2291.9858103759766,1607.0937245910645Q2291.6993103759764,1607.7855245910644,2291.3792103759765,1608.4623245910645Q2291.0590103759764,1609.1392245910645,2290.7061103759766,1609.7995245910645Q2290.3531103759765,1610.4598245910645,2289.9682103759765,1611.1020245910645Q2289.5833103759765,1611.7442245910645,2289.1673103759767,1612.3668245910644Q2288.7513103759766,1612.9893245910644,2288.3053103759767,1613.5907245910644Q2287.8593103759767,1614.1921245910644,2287.3843103759764,1614.7709245910644Q2286.9093103759765,1615.3497245910644,2286.4065103759767,1615.9044245910645Q2285.9037103759765,1616.4592245910644,2285.3743103759766,1616.9887245910645Q2284.8448103759765,1617.5181245910644,2284.2900103759766,1618.0209245910644Q2283.7353103759765,1618.5237245910644,2283.1565103759767,1618.9987245910645Q2282.5777103759765,1619.4737245910644,2281.9763103759765,1619.9197245910646Q2281.3749103759765,1620.3657245910645,2280.7524103759765,1620.7817245910644Q2280.1298103759764,1621.1977245910643,2279.4876103759766,1621.5826245910644Q2278.8454103759764,1621.9675245910644,2278.1851103759764,1622.3205245910644Q2277.5248103759764,1622.6734245910645,2276.8479103759764,1622.9936245910644Q2276.1711103759767,1623.3137245910646,2275.4793103759766,1623.6002245910645Q2274.787610375977,1623.8868245910644,2274.0826103759764,1624.1390245910645Q2273.3776903759767,1624.3912245910644,2272.6611903759767,1624.6086245910644Q2271.9447003759765,1624.8259245910644,2271.2184003759767,1625.0079245910645Q2270.4921103759766,1625.1898245910645,2269.7577603759764,1625.3358245910645Q2269.0234203759765,1625.4819245910644,2268.2827903759767,1625.5918245910646Q2267.5421603759764,1625.7016245910645,2266.7970303759766,1625.7750245910645Q2266.0519003759764,1625.8484245910645,2265.3040703759766,1625.8852245910643Q2264.5562433759765,1625.9219245910645,2263.8075103759766,1625.9219245910645Q2263.0587773759767,1625.9219245910645,2262.3109503759765,1625.8852245910643Q2261.5631203759767,1625.8484245910645,2260.8179903759765,1625.7750245910645Q2260.0728603759767,1625.7016245910645,2259.3322303759765,1625.5918245910646Q2258.5916003759767,1625.4819245910644,2257.8572603759767,1625.3358245910645Q2257.1229103759765,1625.1898245910645,2256.3966103759767,1625.0078245910645Q2255.6703203759766,1624.8259245910644,2254.9538303759764,1624.6086245910644Q2254.2373303759764,1624.3912245910644,2253.5324103759767,1624.1390245910645Q2252.8274103759763,1623.8868245910644,2252.1357103759765,1623.6002245910645Q2251.4439103759764,1623.3137245910646,2250.7671103759767,1622.9936245910644Q2250.0902103759768,1622.6734245910645,2249.4299103759768,1622.3205245910644Q2248.7696103759768,1621.9675245910644,2248.1274103759765,1621.5826245910644Q2247.4852103759767,1621.1977245910643,2246.8626103759766,1620.7817245910644Q2246.2401103759767,1620.3657245910645,2245.6387103759766,1619.9197245910646Q2245.0373103759766,1619.4737245910644,2244.4585103759764,1618.9987245910645Q2243.8797103759766,1618.5237245910644,2243.3250103759765,1618.0209245910644Q2242.7702103759766,1617.5181245910644,2242.2407103759765,1616.9887245910645Q2241.7113103759766,1616.4592245910644,2241.2085103759764,1615.9044245910645Q2240.7057103759767,1615.3497245910644,2240.2307103759767,1614.7709245910644Q2239.7557103759764,1614.1921245910644,2239.3097103759765,1613.5907245910644Q2238.8637103759766,1612.9893245910644,2238.4477103759764,1612.3668245910644Q2238.0317103759767,1611.7442245910645,2237.6468103759767,1611.1020245910645Q2237.2619103759766,1610.4598245910645,2236.9089103759766,1609.7995245910645Q2236.5560103759767,1609.1392245910645,2236.2358103759766,1608.4623245910645Q2235.9157103759767,1607.7855245910644,2235.6292103759765,1607.0937245910645Q2235.3426103759766,1606.4020245910644,2235.0904103759767,1605.6970245910645Q2234.8382103759764,1604.9921045910644,2234.6208103759764,1604.2756045910644Q2234.4035103759766,1603.5591145910644,2234.221510375977,1602.8328145910646Q2234.0396103759767,1602.1065245910645,2233.8936103759766,1601.3721745910645Q2233.7475103759766,1600.6378345910643,2233.6376103759767,1599.8972045910646Q2233.5278103759765,1599.1565745910646,2233.4544103759767,1598.4114445910645Q2233.3810103759765,1597.6663145910645,2233.3442103759767,1596.9184845910645Q2233.3075103759766,1596.1706575910644,2233.3075103759766,1595.4219245910645Q2233.3075103759766,1594.6731915910646,2233.3442103759767,1593.9253645910644Q2233.3810103759765,1593.1775345910644,2233.4544103759767,1592.4324045910644Q2233.5278103759765,1591.6872745910644,2233.6376103759767,1590.9466445910643Q2233.7475103759766,1590.2060145910646,2233.8936103759766,1589.4716745910644Q2234.0396103759767,1588.7373245910644,2234.2216103759765,1588.0110245910644Q2234.4035103759766,1587.2847345910645,2234.6208103759764,1586.5682445910645Q2234.8382103759764,1585.8517445910645,2235.0904103759767,1585.1468245910644Q2235.3426103759766,1584.4418245910645,2235.6292103759765,1583.7501245910644Q2235.9157103759767,1583.0583245910645,2236.2358103759766,1582.3815245910644Q2236.5560103759767,1581.7046245910644,2236.9089103759766,1581.0443245910644Q2237.2619103759766,1580.3840245910644,2237.6468103759767,1579.7418245910644Q2238.0317103759767,1579.0996245910644,2238.4477103759764,1578.4770245910645Q2238.8637103759766,1577.8545245910645,2239.3097103759765,1577.2531245910645Q2239.7557103759764,1576.6517245910645,2240.2307103759767,1576.0729245910645Q2240.7057103759767,1575.4941245910645,2241.2085103759764,1574.9394245910644Q2241.7113103759766,1574.3846245910645,2242.2407103759765,1573.8551245910644Q2242.7702103759766,1573.3257245910645,2243.3250103759765,1572.8229245910645Q2243.8797103759766,1572.3201245910645,2244.4585103759764,1571.8451245910644Q2245.0373103759766,1571.3701245910645,2245.6387103759766,1570.9241245910644Q2246.2401103759767,1570.4781245910644,2246.8626103759766,1570.0621245910645Q2247.4852103759767,1569.6461245910646,2248.1274103759765,1569.2612245910645Q2248.7696103759768,1568.8763245910645,2249.4299103759768,1568.5233245910645Q2250.0902103759768,1568.1704245910644,2250.7671103759767,1567.8502245910645Q2251.4439103759764,1567.5301245910644,2252.1357103759765,1567.2436245910644Q2252.8274103759763,1566.9570245910645,2253.5324103759767,1566.7048245910644Q2254.2373303759764,1566.4526245910645,2254.9538303759764,1566.2352245910645Q2255.6703203759766,1566.0179245910645,2256.3966203759765,1565.8359245910644Q2257.1229103759765,1565.6540245910644,2257.8572603759767,1565.5080245910644Q2258.5916003759767,1565.3619245910645,2259.3322303759765,1565.2520245910644Q2260.0728603759767,1565.1422245910644,2260.8179903759765,1565.0688245910644Q2261.5631203759767,1564.9954245910644,2262.3109503759765,1564.9586245910646Q2263.0587773759767,1564.9219245910645,2263.8075103759766,1564.9219245910645Q2264.5562433759765,1564.9219245910645,2265.3040703759766,1564.9586245910646Q2266.0519003759764,1564.9954245910644,2266.7970303759766,1565.0688245910644Q2267.5421603759764,1565.1422245910644,2268.2827903759767,1565.2520245910644Q2269.0234203759765,1565.3619245910645,2269.7577603759764,1565.5080245910644Q2270.4921103759766,1565.6540245910644,2271.2184103759764,1565.8360245910644Q2271.9447003759765,1566.0179245910645,2272.6611903759767,1566.2352245910645Q2273.3776903759767,1566.4526245910645,2274.0826103759764,1566.7048245910644Q2274.787610375977,1566.9570245910645,2275.4793103759766,1567.2436245910644Q2276.1711103759767,1567.5301245910644,2276.8479103759764,1567.8502245910645Q2277.5248103759764,1568.1704245910644,2278.1851103759764,1568.5233245910645Q2278.8454103759764,1568.8763245910645,2279.4876103759766,1569.2612245910645Q2280.1298103759764,1569.6461245910646,2280.7524103759765,1570.0621245910645Q2281.3749103759765,1570.4781245910644,2281.9763103759765,1570.9241245910644Q2282.5777103759765,1571.3701245910645,2283.1565103759767,1571.8451245910644Q2283.7353103759765,1572.3201245910645,2284.2900103759766,1572.8229245910645Q2284.8448103759765,1573.3257245910645,2285.3743103759766,1573.8551245910644Q2285.9037103759765,1574.3846245910645,2286.4065103759767,1574.9394245910644Q2286.9093103759765,1575.4941245910645,2287.3843103759764,1576.0729245910645Q2287.8593103759767,1576.6517245910645,2288.3053103759767,1577.2531245910645Q2288.7513103759766,1577.8545245910645,2289.1673103759767,1578.4770245910645Q2289.5833103759765,1579.0996245910644,2289.9682103759765,1579.7418245910644Q2290.3531103759765,1580.3840245910644,2290.7061103759766,1581.0443245910644Q2291.0590103759764,1581.7046245910644,2291.3792103759765,1582.3815245910644Q2291.6993103759764,1583.0583245910645,2291.9858103759766,1583.7501245910644Q2292.2724103759765,1584.4418245910645,2292.5246103759764,1585.1468245910644Q2292.7768103759768,1585.8517445910645,2292.9942103759768,1586.5682445910645Q2293.2115103759766,1587.2847345910645,2293.3935103759763,1588.0110345910643Q2293.5754103759764,1588.7373245910644,2293.7214103759766,1589.4716745910644Q2293.8675103759765,1590.2060145910646,2293.9774103759764,1590.9466445910643Q2294.0872103759766,1591.6872745910644,2294.1606103759764,1592.4324045910644Q2294.2340103759766,1593.1775345910644,2294.2708103759765,1593.9253645910644Q2294.3075103759766,1594.6731915910646,2294.3075103759766,1595.4219245910645Z" fill="#03045C" fill-opacity="1"/></g></g></g></g></svg>