<svg t="1679806562617" class="icon" viewBox="0 0 1024 1024" version="1.1" xmlns="http://www.w3.org/2000/svg" p-id="2309" width="24" height="24"><path d="M128 0C57.312 0 0 57.312 0 128v768c0 70.688 57.312 128 128 128h768c70.688 0 128-57.312 128-128V128c0-70.688-57.312-128-128-128H128z m144.501333 267.072a42.666667 42.666667 0 0 1 36.426667 48.096L272.96 576H373.333333a42.666667 42.666667 0 1 1 0 85.333333H224a42.666667 42.666667 0 0 1-42.261333-48.501333l42.666666-309.333333a42.666667 42.666667 0 0 1 48.096-36.426667z m151.978667 86.912a42.666667 42.666667 0 0 1 53.546667 27.84l37.941333 120.16 75.946667-138.506667a42.666667 42.666667 0 0 1 74.826666 41.034667l-181.333333 330.666667a42.666667 42.666667 0 1 1-74.816-41.034667l48.586667-88.608-62.528-198.016a42.666667 42.666667 0 0 1 27.84-53.546667z m340.16-12.021333a42.666667 42.666667 0 0 1 33.216 28.650666c14.549333-13.632 30.805333-22.08 48.384-27.434666a42.666667 42.666667 0 1 1 24.853333 81.642666c-34.912 10.624-81.749333 38.4-93.205333 90.026667L756.693333 636.64a42.666667 42.666667 0 0 1-84.074666-14.613333l42.666666-245.333334a42.666667 42.666667 0 0 1 49.344-34.730666z" fill="#3e48b3" p-id="2310"></path></svg>
