<svg class="icon" viewBox="0 0 1024 1024" version="1.1" xmlns="http://www.w3.org/2000/svg" width="250" height="250"><path d="M916.061753 0.000128H107.809878A107.681251 107.681251 0 0 0 0.000128 107.809878V916.190251a107.809749 107.809749 0 0 0 107.80975 107.809749H916.190251a107.809749 107.809749 0 0 0 107.809749-107.809749V107.809878A107.938247 107.938247 0 0 0 916.061753 0.000128z m-61.165007 349.899819L454.754244 750.170947a53.840626 53.840626 0 0 1-76.199263 0L168.974885 540.59085a53.969124 53.969124 0 1 1 76.199262-76.327761l171.544714 171.544715 361.850124-361.978622a53.840626 53.840626 0 0 1 76.327761 76.070765z"></path></svg>
