<svg t="1678444190858" class="icon" viewBox="0 0 1024 1024" version="1.1" xmlns="http://www.w3.org/2000/svg" p-id="1517" width="250" height="250"><path d="M768 92.48A60.48 60.48 0 0 0 707.52 32H316.48A60.48 60.48 0 0 0 256 92.48V96h512zM838.72 288H185.28A57.28 57.28 0 0 0 128 345.28v589.44A57.28 57.28 0 0 0 185.28 992h653.44A57.28 57.28 0 0 0 896 934.72V345.28A57.28 57.28 0 0 0 838.72 288zM672 496a48 48 0 0 0-48 48v235.84a47.68 47.68 0 0 1 0 11.52c-7.68 56.32-69.44 99.2-147.84 99.2-83.84 0-149.44-48.64-149.44-110.72s65.6-110.72 149.44-110.72a199.68 199.68 0 0 1 53.44 7.36V544A144 144 0 0 1 672 400a48 48 0 1 1 0 96zM768 160H256a64 64 0 0 0-64 64h640a64 64 0 0 0-64-64z" fill="#ffffff" p-id="1518"></path></svg>
