<svg t="1678453586056" class="icon" viewBox="0 0 1024 1024" version="1.1" xmlns="http://www.w3.org/2000/svg" p-id="1920" width="250" height="250"><path d="M885.333333 256H138.666667a53.393333 53.393333 0 0 0-53.333334 53.333333v576a53.393333 53.393333 0 0 0 53.333334 53.333334h746.666666a53.393333 53.393333 0 0 0 53.333334-53.333334V309.333333a53.393333 53.393333 0 0 0-53.333334-53.333333zM624.84 596.42a21.333333 21.333333 0 0 1-26.593333-14.246667C593.333333 566 586.18 552 577.513333 541.8a64.24 64.24 0 0 0-13.333333-12 21.473333 21.473333 0 0 1-2.953333-2.366667q-3.38-3.233333-6.586667-6.813333V725.333333c0 23.626667-12.22 46.34-33.526667 62.32C501.333333 802.493333 475.38 810.666667 448 810.666667s-53.333333-8.173333-73.14-23.013334c-21.333333-16-33.526667-38.666667-33.526667-62.32s12.22-46.34 33.526667-62.32C394.666667 648.173333 420.62 640 448 640c23.333333 0 45.666667 5.946667 64 16.893333V405.333333a21.333333 21.333333 0 0 1 20.773333-21.333333h0.56a21.333333 21.333333 0 0 1 21.333334 20.22c0.74 14.14 3.52 35.473333 12.553333 56.78 5.833333 13.753333 13.546667 25.613333 22.36 34.42a107.46 107.46 0 0 1 20.493333 18.78c12.6 14.853333 22.373333 33.573333 29.04 55.626667a21.333333 21.333333 0 0 1-14.273333 26.593333zM512 725.333333c0 23.126667-29.333333 42.666667-64 42.666667s-64-19.54-64-42.666667 29.333333-42.666667 64-42.666666 64 19.54 64 42.666666zM170.666667 106.666667a21.333333 21.333333 0 0 1 21.333333-21.333334h640a21.333333 21.333333 0 0 1 0 42.666667H192a21.333333 21.333333 0 0 1-21.333333-21.333333z m-42.666667 85.333333a21.333333 21.333333 0 0 1 21.333333-21.333333h725.333334a21.333333 21.333333 0 0 1 0 42.666666H149.333333a21.333333 21.333333 0 0 1-21.333333-21.333333z" fill="#ffffff" p-id="1921"></path></svg>
