<svg xmlns="http://www.w3.org/2000/svg" xmlns:xlink="http://www.w3.org/1999/xlink" fill="none" version="1.1" width="171.96875" height="171.96875" viewBox="0 0 171.96875 171.96875"><g><path d="M146.652,46.707L117.289,98.6797C110.153,118.168,86.3522,125.415,69.5666,113.209C52.781,101.0041,52.3368,76.1287,68.6759,63.3319C85.0151,50.5352,109.059,56.9272,116.887,76.1484L139.051,36.9258C125.385,22.11,106.14,13.6936,85.9844,13.7188C46.0703,13.7188,13.7188,46.0703,13.7188,85.9844C13.7188,125.898,46.0703,158.25,85.9844,158.25C125.895,158.25,158.25,125.895,158.25,85.9844C158.25,71.5,153.992,58.0156,146.652,46.707ZM105.582,96.3242L105.516,96.2891L105.918,95.5781C111.727,81.8422,100.6193,66.9269,85.795,68.5565C70.9706,70.1861,63.3685,87.1582,72.0224,99.3042C80.6764,111.45,99.2005,109.808,105.582,96.3281L105.582,96.3242ZM169.969,85.9844C169.969,132.367,132.367,169.969,85.9844,169.969C39.6016,169.969,2,132.367,2,85.9844C2,39.6016,39.6016,2,85.9844,2C132.367,2,169.969,39.6016,169.969,85.9844Z" fill="#FFFFFF" fill-opacity="1"/><path d="M85.9844,0Q103.476,0,119.454,6.75797Q134.885,13.2848,146.784,25.1844Q158.684,37.084,165.211,52.515Q171.969,68.4923,171.969,85.9844Q171.969,103.476,165.211,119.454Q158.684,134.885,146.784,146.784Q134.885,158.684,119.454,165.211Q103.476,171.969,85.9844,171.969Q68.4923,171.969,52.515,165.211Q37.084,158.684,25.1844,146.784Q13.2847,134.885,6.75797,119.454Q0,103.476,0,85.9844Q0,68.4924,6.75797,52.515Q13.2847,37.0841,25.1844,25.1844Q37.0841,13.2847,52.515,6.75797Q68.4924,0,85.9844,0ZM85.9844,4Q69.3036,4,54.0732,10.44198Q39.3609,16.6648,28.0128,28.0128Q16.6648,39.3609,10.44198,54.0732Q4,69.3036,4,85.9844Q4,102.665,10.44198,117.896Q16.6648,132.608,28.0128,143.956Q39.3608,155.304,54.0732,161.527Q69.3035,167.969,85.9844,167.969Q102.665,167.969,117.896,161.527Q132.608,155.304,143.956,143.956Q155.304,132.608,161.527,117.896Q167.969,102.665,167.969,85.9844Q167.969,69.3035,161.527,54.0732Q155.304,39.3608,143.956,28.0128Q132.608,16.6648,117.896,10.44198Q102.665,4,85.9844,4ZM103.582,96.3281L103.582,96.3242L105.582,96.3242L104.646,98.0918L102.762,97.0942L104.177,94.5931L105.918,95.5781L104.076,94.7991Q105.976,90.305,105.328,85.6055Q104.714,81.1578,101.9898,77.4998Q99.2657,73.8418,95.1804,71.9793Q90.8637,70.0114,86.0135,70.5445Q81.1633,71.0777,77.3772,73.9364Q73.794,76.6419,71.9296,80.8043Q70.0652,84.9666,70.4321,89.4415Q70.8199,94.1697,73.6513,98.1437Q76.4827,102.118,80.8251,104.028Q84.9347,105.836,89.4777,105.434Q94.0207,105.031,97.7481,102.527Q101.6865,99.8825,103.774,95.4723L105.582,96.3281L103.582,96.3281ZM107.582,96.3281L107.582,96.7776L107.39,97.1839Q104.831,102.589,99.9781,105.848Q95.3977,108.924,89.8311,109.418Q84.2644,109.912,79.2141,107.689Q73.864,105.335,70.3936,100.4647Q66.9232,95.5941,66.4455,89.7684Q65.99459999999999,84.2693,68.2791,79.1691Q70.5635,74.0689,74.9669,70.7442Q79.6317,67.222,85.5764,66.5685Q91.5212,65.91499999999999,96.8397,68.3397Q101.8601,70.6285,105.198,75.1107Q108.536,79.5929,109.29,85.0585Q110.089,90.8489,107.76,96.3571L107.715,96.4631L107.256,97.2741L105.516,96.2891L106.451,94.5215L107.582,95.1201L107.582,96.3281ZM156.25,85.9844Q156.25,75.5862,153.288,65.7304Q150.42,56.1852,144.975,47.7959L146.652,46.707L148.394,47.6908L119.03,99.6635L117.289,98.6797L119.167,99.3674Q116.388,106.956,110.539,112.357Q104.957,117.512,97.6289,119.743Q90.3006,121.974,82.7934,120.805Q74.9269,119.58,68.3904,114.827Q61.8539,110.074,58.2633,102.968Q54.8366,96.1873,54.6998,88.5281Q54.563,80.869,57.7455,73.9698Q61.0801,66.7405,67.4427,61.7574Q73.8054,56.7742,81.6231,55.269Q89.0838,53.8325,96.4871,55.8006Q103.89,57.7687,109.653,62.7205Q115.691,67.9092,118.739,75.3941L116.887,76.1484L115.145,75.1645L137.31,35.9418L139.051,36.9258L137.581,38.2818Q127.616,27.4782,114.15,21.5893Q100.6841,15.7004,85.9869,15.7187Q71.6864,15.7188,58.6332,21.2394Q46.0237,26.5723,36.298,36.298Q26.5723,46.0237,21.2394,58.6332Q15.7188,71.6864,15.7188,85.9844Q15.7188,100.2823,21.2394,113.336Q26.5723,125.945,36.298,135.671Q46.0237,145.396,58.6332,150.729Q71.6864,156.25,85.9844,156.25Q100.2809,156.25,113.334,150.729Q125.943,145.395,135.669,135.669Q145.395,125.943,150.729,113.334Q156.25,100.2809,156.25,85.9844ZM160.25,85.9844Q160.25,101.092,154.413,114.892Q148.775,128.22,138.498,138.498Q128.22,148.775,114.892,154.413Q101.092,160.25,85.9844,160.25Q70.8753,160.25,57.0751,154.413Q43.7469,148.777,33.4696,138.499Q23.1922,128.22199999999998,17.555300000000003,114.894Q11.71875,101.0934,11.71875,85.9844Q11.71875,70.8753,17.555300000000003,57.0751Q23.1922,43.7469,33.4696,33.4696Q43.7469,23.1922,57.0751,17.555300000000003Q70.8753,11.71875,85.9819,11.71875Q101.5182,11.69938,115.753,17.924500000000002Q129.987,24.1496,140.521,35.5698L141.509,36.641L116.594,80.7321L115.034,76.9027Q112.351,70.313,107.046,65.7542Q101.9777,61.3992,95.4594,59.6663Q88.941,57.9335,82.3794,59.1968Q75.5108,60.5193,69.9091,64.9065Q64.3075,69.2937,61.3777,75.6453Q58.5787,81.713,58.6992,88.4567Q58.8196,95.2004,61.8334,101.1644Q64.9881,107.407,70.7428,111.592Q76.4975,115.776,83.4089,116.853Q90.0115,117.881,96.4639,115.916Q102.916,113.952,107.826,109.419Q112.964,104.673,115.411,97.992L115.467,97.8383L146.534,42.8509L148.33,45.6182Q154.086,54.4869,157.119,64.5792Q160.25,74.9981,160.25,85.9844Z" fill="#FFFFFF" fill-opacity="1"/></g></svg>
