<svg t="1680157975718" class="icon" viewBox="0 0 1024 1024" version="1.1" xmlns="http://www.w3.org/2000/svg" p-id="1504" width="250" height="250"><path d="M900.871202 490.065214q49.979512 0 86.549155 35.349655t36.569643 85.329167q0 49.979512-36.569643 85.339166-36.569643 35.349655-86.549155 35.349655h-73.149285v197.478072q0 39.009619-28.639721 67.049345T731.422857 1024h-185.29819v-73.139286q0-54.859464-39.009619-92.039101-39.009619-37.179637-93.869084-37.179637-54.859464 0-93.249089 37.179637-38.399625 37.179637-38.399625 92.039101V1024H96.29906q-38.999619 0-67.64934-28.039726Q0 967.920548 0 928.910929V743.622738h73.139286q54.859464 0 92.649095-39.009619 37.789631-39.009619 37.789631-93.869083 0-54.859464-37.789631-93.869084-37.789631-39.009619-92.649095-39.009619H0v-185.29819q0-37.789631 28.64972-66.439351 28.64972-28.63972 67.64934-28.639721h196.268083v-73.149285q0-51.1995 35.349655-87.769143Q363.276452 0 413.865958 0t85.939161 36.569643q35.349655 36.569643 35.349655 87.769143v73.149285h196.268083q39.009619 0 67.659339 28.639721 28.63972 28.64972 28.639721 66.439351v197.488071h73.149285z" fill="#fffffc" p-id="1505"></path></svg>
